<svg width="176" height="176" viewBox="0 0 176 176" fill="none" xmlns="http://www.w3.org/2000/svg">
<path d="M140.732 131.238L87.4324 172L34.4939 131.238C28.5086 126.646 25 119.526 25 111.993V20.2015C25 16.2285 27.5799 12.7199 31.3464 11.5332C40.4791 8.59214 59.3636 4 86.6585 4C114.263 4 134.179 8.69533 143.776 11.5848C147.595 12.7199 150.226 16.2801 150.226 20.3047V111.889C150.278 119.526 146.769 126.646 140.732 131.238Z" fill="#272E61"/>
<path d="M114.521 23.2456C114.624 23.6584 114.676 24.1228 114.676 24.5355C114.676 28.1473 111.167 31.0884 106.885 31.0884C105.905 31.0884 104.976 30.9336 104.099 30.624C103.118 33.7198 99.3002 35.5773 95.2756 34.7517C93.2117 34.339 91.4574 33.2554 90.3223 31.9139V49.6633C101.932 40.8402 113.747 31.8623 123.344 24.6387C120.352 24.1228 117.411 23.6584 114.521 23.2456Z" fill="white"/>
<path d="M50.0249 75.6164C49.9733 72.211 47.8578 69.1668 47.8578 69.1668C47.8578 69.1668 46.9806 69.4764 46.5163 68.0832C46.0519 66.6385 47.6514 66.9481 50.9536 58.1766C54.1526 49.6115 52.9659 43.781 52.3983 41.7688C51.8308 39.7565 50.7988 38.8793 50.7472 37.7442C50.6956 36.6091 53.4819 37.125 53.4819 37.125C53.4819 37.125 53.4819 37.125 55.4426 35.6803C57.4032 34.2356 57.9708 34.5968 58.074 34.7516C58.1772 34.9063 58.5384 35.1127 58.5384 35.1127C58.5384 35.1127 61.531 33.1004 61.8922 32.9457C62.2534 32.7909 63.2337 32.0169 63.9045 33.4616C64.5752 34.9063 63.9561 36.3511 63.5949 37.125C63.2337 37.899 62.0986 39.5501 62.1502 39.7049C62.305 40.2724 63.2853 44.2454 63.2853 44.2454C63.2853 44.2454 63.8013 44.6582 64.73 45.2774C65.6588 45.8965 66.0716 46.7221 66.4327 46.6189C67.7227 46.1545 68.9094 43.5747 71.0249 40.3756C73.1403 37.1766 75.7202 37.7442 75.7202 37.7442C75.7202 37.7442 73.5015 46.7221 71.2828 51.8302C69.0642 56.9383 65.762 57.8154 64.1625 57.9702C64.7816 58.2282 65.6588 58.1766 67.0519 57.6606C67.2067 66.4321 61.1698 69.4248 61.1698 69.4248V71.8498C67.3099 67.2061 74.4819 61.7368 82.015 56.0095V33.5132C80.3639 34.442 78.3516 34.9579 76.1846 34.9579C72.2116 34.9579 68.8062 33.2036 67.2067 30.6238C66.0716 31.0366 64.8332 31.243 63.4917 31.243C58.4352 31.243 54.3074 28.0439 54.101 23.9678C46.7227 25.1545 42.4917 26.3412 42.4917 26.3412V86.0906C42.4917 86.0906 45.2263 83.9751 49.8185 80.5181C49.8185 79.6926 50.0765 78.2995 50.0249 75.6164Z" fill="white"/>
<path d="M30.9336 118.649C32.1203 122.054 34.2874 125.098 37.1768 127.317L86.9164 165.602L136.966 127.317C141.609 123.757 144.292 118.287 144.292 112.457V32.5332C105.182 62.2015 60.5503 96.1524 30.9336 118.649Z" fill="white"/>
<path d="M44.71 108.174C39.8599 111.889 35.2161 115.398 30.9336 118.649C32.1203 122.054 34.2874 125.098 37.1768 127.317L44.71 133.096V108.174Z" fill="#CB3524"/>
<path d="M130.567 132.219L137.017 127.317C141.661 123.757 144.344 118.288 144.344 112.457V32.5332C139.803 35.9902 135.211 39.4472 130.567 43.0074V132.219Z" fill="#CB3524"/>
<path d="M79.1769 81.9634C73.1917 86.5039 67.3096 90.9929 61.6855 95.2754V146.15L79.1769 159.617V81.9634Z" fill="#CB3524"/>
<path d="M113.644 145.169V55.8032C107.813 60.2406 101.931 64.6779 96.1523 69.1153V158.585L113.644 145.169Z" fill="#CB3524"/>
<path d="M86.0907 9.00488L87.587 13.3906L92.2308 13.4938L88.5674 16.2801L89.9089 20.7174L86.0907 18.086L82.2726 20.7174L83.6141 16.2801L79.9507 13.4938L84.5428 13.3906L86.0907 9.00488Z" fill="white"/>
<path d="M33.7196 15.7124L35.216 20.0982L39.8597 20.2013L36.1963 22.9876L37.5378 27.4249L33.7196 24.7935L29.9015 27.4249L31.243 22.9876L27.5796 20.2013L32.1717 20.0982L33.7196 15.7124Z" fill="white"/>
<path d="M33.7196 54.8232L35.216 59.209L39.8597 59.3122L36.1963 62.0984L37.5378 66.5358L33.7196 63.9043L29.9015 66.5358L31.243 62.0984L27.5796 59.3122L32.1717 59.209L33.7196 54.8232Z" fill="white"/>
<path d="M70.199 69.9927L71.6953 74.3784L76.339 74.43L72.624 77.2679L73.9656 81.7052L70.199 79.0222L66.3808 81.7052L67.7223 77.2679L64.0073 74.43L68.6511 74.3784L70.199 69.9927Z" fill="white"/>
<path d="M103.995 45.5356L105.491 49.9214L110.135 50.0246L106.42 52.8108L107.761 57.2482L103.995 54.6167L100.177 57.2482L101.518 52.8108L97.8032 50.0246L102.447 49.9214L103.995 45.5356Z" fill="white"/>
<path d="M33.7196 96.2041L35.216 100.59L39.8597 100.693L36.1963 103.479L37.5378 107.917L33.7196 105.285L29.9015 107.917L31.243 103.479L27.5796 100.693L32.1717 100.59L33.7196 96.2041Z" fill="white"/>
<path d="M137.275 15.7124L138.771 20.0982L143.415 20.2013L139.7 22.9876L141.042 27.4249L137.275 24.7935L133.457 27.4249L134.798 22.9876L131.083 20.2013L135.727 20.0982L137.275 15.7124Z" fill="white"/>
</svg>
