<svg width="176" height="176" viewBox="0 0 176 176" fill="none" xmlns="http://www.w3.org/2000/svg">
<path d="M111.441 5.39891C103.706 10.7687 96.2492 13.27 87.9744 13.27C79.6988 13.27 72.2414 10.7687 64.506 5.39891L62.4909 4L60.4458 5.35439C51.7029 11.1436 44.5994 12.2026 33.7604 12.2026C30.0235 12.2026 26.0054 11.4974 22.1414 10.1629L19.5674 9.2742L18.0013 11.5015C17.1685 12.6861 16.5496 13.4386 15.9515 14.1661C15.2145 15.0622 14.5181 15.909 13.7004 17.2233L12.3908 19.3284L13.8815 21.3094C20.5056 30.1125 23.0054 39.169 23.0054 47.6943C23.0054 63.592 14.313 77.6402 7.46688 84.744L5 87.3038L7.51615 89.8149C8.86579 91.1619 11.2697 93.6561 13.2578 95.7457L13.178 96.8412L13.1605 97.0407C13.0789 98.56 13.0377 100.081 13.037 101.603C13.037 117.747 17.809 131.171 27.2529 141.552C38.1866 153.573 55.2829 160.749 75.4883 161.866C80.5058 166.436 85.6049 170.229 85.8331 170.398L87.9931 172L90.1504 170.392C90.3769 170.223 95.4483 166.433 100.46 161.865C120.665 160.749 137.76 153.573 148.694 141.552C158.138 131.17 162.91 117.747 162.91 101.603C162.91 100.106 162.869 98.5848 162.787 97.0401L162.784 97.0042L162.766 96.8062C162.766 96.8062 162.695 95.8258 162.69 95.7454C164.53 93.8107 167.012 91.2304 168.431 89.814L170.946 87.3029L168.48 84.7434C161.635 77.639 152.942 63.5896 152.942 47.6919C152.942 39.1673 155.441 30.111 162.065 21.3088L163.555 19.3287L162.247 17.2239C161.429 15.9084 160.733 15.0616 159.996 14.1649C159.398 13.4377 158.779 12.6856 157.947 11.5012L156.381 9.27301L153.807 10.162C149.942 11.4965 145.924 12.2017 142.188 12.2017C131.348 12.2017 124.244 11.1427 115.502 5.3535L113.456 4L111.441 5.39891Z" fill="black"/>
<path d="M87.9884 167.493C87.9884 167.493 82.2128 163.209 76.995 158.335C42.8607 156.919 14.6152 137.777 16.7734 97.233C16.901 96.1633 16.7927 96.2354 16.9779 94.4102C15.0207 92.3393 11.7821 88.9606 10.0718 87.2539C22.3156 74.5485 36.6028 45.4865 16.7719 19.1335C18.0758 17.0371 19.0197 16.3419 20.9603 13.5815C24.9241 14.9501 29.3316 15.8195 33.7601 15.8195C45.1322 15.8195 52.8968 14.691 62.4428 8.36963C69.9898 13.6085 78.174 16.8866 87.9747 16.8866C97.7748 16.8866 105.958 13.6085 113.505 8.36963C123.051 14.6907 130.815 15.8195 142.188 15.8195C146.615 15.8195 151.024 14.9504 154.988 13.5815C156.928 16.3416 157.872 17.0371 159.175 19.1335C139.345 45.4865 153.633 74.5485 165.876 87.2539C164.166 88.9606 160.927 92.3393 158.97 94.4102C159.154 96.2351 159.047 96.1633 159.174 97.233C161.332 137.777 133.086 156.919 98.9535 158.335C93.7354 163.209 87.9884 167.493 87.9884 167.493V167.493Z" fill="#E2B900"/>
<path d="M23.2478 94.8145H22.7661L22.5607 96.5589L22.4126 97.6817C21.6159 113.3 25.5099 125.917 33.9838 135.211C43.7035 145.873 59.4504 151.947 79.5223 152.779C79.5419 152.78 79.8594 152.782 79.8594 152.782C85.8819 152.814 91.5699 152.845 96.4092 152.78C116.496 151.948 132.243 145.873 141.963 135.212C150.437 125.918 154.33 113.301 153.536 97.7105C153.534 97.6823 153.385 96.5541 153.385 96.5541L153.181 94.8352L152.698 94.8148H23.2478V94.8145Z" fill="black"/>
<path d="M23.7296 95.8984L23.6319 96.7263C23.6319 96.7263 23.4948 97.7666 23.4933 97.7666C23.4274 99.0458 23.3941 100.326 23.3936 101.607C23.3936 115.135 27.2181 126.18 34.7855 134.481C36.594 136.465 38.6192 138.286 40.8469 139.941V95.8984H23.7296ZM152.455 97.7942L152.314 96.7209L152.217 95.8984H135.1V139.941C137.328 138.287 139.353 136.466 141.161 134.481C148.73 126.179 152.555 115.132 152.555 101.621C152.554 100.367 152.522 99.0914 152.455 97.7942V97.7942Z" fill="#004B95"/>
<path d="M59.6976 95.8984H40.8472V139.941C46.0632 143.818 52.3976 146.778 59.6976 148.772V95.8984ZM116.25 95.8984V148.772C123.551 146.777 129.885 143.816 135.1 139.941V95.8984H116.25Z" fill="#A4234B"/>
<path d="M69.9043 123.026C69.9043 116.501 73.3638 110.785 78.5483 107.609V95.8984H59.6973V148.773C65.412 150.334 71.7191 151.3 78.5483 151.646V138.444C73.3641 135.268 69.9043 129.551 69.9043 123.026V123.026ZM97.3988 95.8984V107.608C102.583 110.784 106.043 116.501 106.043 123.026C106.043 129.551 102.583 135.268 97.3988 138.444V151.645C104.229 151.299 110.536 150.332 116.25 148.771V95.8984H97.3988Z" fill="#004B95"/>
<path d="M97.3989 107.609V95.8984H78.5483V107.608C81.2922 105.927 84.5189 104.957 87.973 104.957C91.4275 104.957 94.6548 105.927 97.3989 107.609V107.609ZM78.5483 138.444V151.646C78.8811 151.664 79.2123 151.682 79.5477 151.696L79.8653 151.698C85.8825 151.73 91.5658 151.761 96.3796 151.696C96.7213 151.682 97.0591 151.663 97.3989 151.646V138.444C94.6545 140.125 91.4272 141.096 87.973 141.096C84.5192 141.096 81.2922 140.125 78.5483 138.444V138.444Z" fill="#A4234B"/>
<path d="M78.7524 126.306C75.483 123.328 75.4729 117.277 76.3512 113.258C76.5951 112.138 76.9024 111.043 77.2194 109.791C73.3755 112.917 70.9199 117.685 70.9199 123.027C70.9169 125.218 71.3375 127.389 72.1586 129.42C72.4492 129.458 72.7445 129.479 73.0443 129.479C75.5696 129.479 77.6316 128.312 78.7524 126.306V126.306ZM96.3094 127.611C95.7499 130.469 92.6932 132.61 89.8129 134.328C86.845 136.098 82.0581 137.013 78.4562 137.18C81.1745 139.011 84.4493 140.081 87.9732 140.081C94.405 140.081 100.005 136.52 102.909 131.263C102.4 127.056 98.4005 126.562 96.3094 127.611V127.611Z" fill="#E2B900"/>
<path d="M77.1331 136.192C80.6908 136.22 86.1585 135.325 89.2927 133.456C93.3437 131.038 96.4909 128.459 94.9955 124.884C94.2398 123.077 91.7275 120.986 88.4705 123.292C88.2624 125.961 84.9677 128.316 82.602 128.012C81.4035 127.858 80.399 127.48 79.5623 126.933C78.2328 129.204 75.8526 130.494 73.0444 130.494C72.9061 130.494 72.7681 130.49 72.6318 130.482C73.7053 132.686 75.2405 134.634 77.1331 136.192V136.192ZM87.9288 112.399C90.7495 111.229 94.6592 112.749 97.6381 114.412C100.45 115.984 103.387 118.916 104.996 121.995C104.466 113.103 97.1255 106.049 88.1199 105.973C85.429 107.74 85.7964 111.071 87.9288 112.399V112.399Z" fill="#E2B900"/>
<path d="M87.4515 123.28C83.9594 120.733 84.174 116.725 85.6765 114.344C86.0451 113.76 86.4743 113.301 86.951 112.95C84.9208 111.329 84.5144 108.185 86.4812 106.036C83.6232 106.283 80.8744 107.25 78.4922 108.849C77.7475 112.051 76.7994 114.976 76.8469 118.321C76.9107 122.829 78.7769 126.499 82.7305 127.006C84.5756 127.242 87.2378 125.279 87.4515 123.28V123.28Z" fill="#E2B900"/>
<path d="M104.957 124.595C103.984 121.066 100.485 117.166 97.1439 115.3C93.0243 112.998 88.5176 111.747 86.5361 114.887C85.2642 116.903 85.0873 120.232 87.9727 122.402C91.8949 119.693 95.0279 122.327 95.9326 124.493C96.2232 125.187 96.3704 125.846 96.3962 126.474C98.7111 125.66 102.474 126.184 103.632 129.797C104.347 128.144 104.794 126.388 104.957 124.595V124.595Z" fill="#E2B900"/>
<path d="M72.427 75.154H60.5061V91.9154H64.1383V85.0001H69.0845V81.4611H64.1383V78.7164H72.6019V75.1545L72.427 75.154V75.154ZM79.3596 83.5344C79.3596 88.7825 82.2441 92.173 86.7082 92.173C89.6186 92.173 91.7147 90.8931 92.9379 88.3702L93.008 88.2253L89.9531 86.4135L89.8637 86.5631C88.9923 88.022 88.163 88.5643 86.8023 88.5643C84.5795 88.5643 83.0856 86.5427 83.0856 83.5344C83.0856 80.432 84.5011 78.5048 86.7792 78.5048C88.1024 78.5048 89.0326 79.0568 89.6239 80.1931L89.7011 80.3412L93.0635 78.7897L92.9857 78.6294C91.8047 76.1872 89.6747 74.8963 86.8255 74.8963C82.4296 74.896 79.3596 78.4484 79.3596 83.5344ZM113.268 82.8374C114.283 82.1176 114.879 80.988 114.879 79.6659C114.879 76.8408 112.867 75.154 109.498 75.154H101.798V91.9154H109.427C113.193 91.9154 115.44 89.8691 115.44 86.442C115.44 84.8368 114.638 83.551 113.268 82.8374V82.8374ZM105.359 78.5288H109.358C110.989 78.5288 111.198 79.2744 111.198 79.9242C111.198 80.8479 110.65 81.2969 109.522 81.2969H105.36L105.359 78.5288ZM109.545 88.4473H105.359V84.554H109.545C111.025 84.554 111.715 85.169 111.715 86.4889C111.715 87.77 110.965 88.4473 109.545 88.4473ZM113.317 15.2325C105.196 20.1449 96.9058 22.5361 87.9721 22.5426C79.0393 22.5364 70.7497 20.1449 62.6287 15.2325L62.3574 15.0684L62.0816 15.2245C52.8306 20.4524 44.6912 21.4749 33.7581 21.4749C31.1307 21.4749 28.4201 21.2111 25.7007 20.6904L24.5288 20.466L25.1308 21.4963C36.363 40.7178 32.3756 59.3011 27.053 71.5063L26.722 72.2653H149.224L148.893 71.5063C143.57 59.3011 139.583 40.7178 150.815 21.4963L151.417 20.466L150.245 20.6904C147.526 21.2111 144.815 21.4749 142.188 21.4749C131.255 21.4749 123.115 20.4524 113.864 15.2245L113.588 15.0684L113.317 15.2325V15.2325Z" fill="black"/>
<path d="M50.4004 21.0122C45.2696 22.2295 39.9529 22.5589 33.7583 22.5589C31.4155 22.5589 29.0062 22.3164 26.5874 21.9125C29.4574 27.0442 31.2834 32.1222 32.3193 37.0441H50.4007L50.4004 21.0122ZM87.4312 37.0441V23.6171C80.9441 23.5432 74.7881 22.2265 68.7882 19.6284V37.0441H87.4312ZM32.8322 55.4321C31.9783 61.3178 30.2742 66.6528 28.3603 71.1805H50.4007V55.4321H32.8322ZM68.7882 71.1805H87.4312V55.4321H68.7882V71.1805V71.1805Z" fill="white"/>
<path d="M68.7892 37.0441V19.6285C66.6212 18.6899 64.4728 17.5884 62.3381 16.3115C58.2556 18.5875 54.3848 20.0672 50.4017 21.012V37.0438H32.3203C33.0475 40.499 33.4138 44.0204 33.4135 47.5513C33.4135 50.2675 33.201 52.9 32.8335 55.4319H50.4017V71.1803H68.7895V55.4319H87.4325V37.0438L68.7892 37.0441V37.0441Z" fill="#DB2F36"/>
<path d="M113.609 16.3115L113.582 16.3267V71.1804H120.046V19.3201C117.929 18.5172 115.799 17.5326 113.609 16.3115V16.3115ZM100.654 21.922V71.1807H107.118V19.6451C105.02 20.5542 102.86 21.315 100.654 21.922V21.922ZM88.5151 23.6172V71.1807H94.1903V23.2183C92.308 23.4614 90.413 23.5946 88.5151 23.6172V23.6172ZM126.511 21.2224V71.1807H132.975V22.1939C130.752 21.9876 128.612 21.6739 126.511 21.2224V21.2224ZM142.534 47.5516C142.534 39.5268 144.389 30.7979 149.359 21.9125C146.94 22.3162 144.53 22.559 142.188 22.559C141.25 22.559 140.339 22.548 139.439 22.5308V71.1807H147.586C144.849 64.7046 142.534 56.5818 142.534 47.5516V47.5516Z" fill="#FFDF00"/>
<path d="M132.975 22.1939V71.1806H139.439V22.5308C137.187 22.4881 135.043 22.3857 132.975 22.1939ZM94.1909 23.2182V71.1806H100.655V21.922C98.5331 22.5047 96.3732 22.9378 94.1909 23.2182V23.2182ZM107.119 19.6451V71.1806H113.583V16.3267C111.444 17.6048 109.291 18.7069 107.119 19.6451ZM120.047 19.3201V71.1806H126.511V21.2224C124.312 20.7525 122.151 20.1166 120.047 19.3201V19.3201Z" fill="#DB2F36"/>
</svg>
