<svg width="280" height="125" viewBox="0 0 280 125" fill="none" xmlns="http://www.w3.org/2000/svg">
    <path d="M0 124.334V97.08h5.747c1.096 0 2.175.048 3.235.144 1.06.096 2.048.252 2.964.468.927.205 1.849.523 2.765.955.915.42 1.752.955 2.512 1.603 1.47 1.225 2.62 2.804 3.451 4.738.832 1.921 1.247 3.867 1.247 5.836 0 .949-.108 1.909-.325 2.882a13.865 13.865 0 0 1-.922 2.828c-.41.913-.903 1.759-1.482 2.54a12.193 12.193 0 0 1-1.97 2.125c-1.481 1.261-3.132 2.102-4.951 2.522-1.807.408-3.946.613-6.416.613H0zm5.078-4.9h.633c1.084 0 2.054-.036 2.91-.108a11.204 11.204 0 0 0 2.566-.522 8.722 8.722 0 0 0 2.367-1.225 8.018 8.018 0 0 0 2.422-2.954 8.578 8.578 0 0 0 .867-3.801c0-.937-.139-1.855-.416-2.756a8.272 8.272 0 0 0-1.247-2.504 8.038 8.038 0 0 0-1.97-1.963 7.972 7.972 0 0 0-3.36-1.333c-1.206-.192-2.675-.288-4.41-.288h-.362v17.454z" fill="url(#a)"/>
    <path d="M46.624 116.3H30.702c.386 1.189 1.073 2.137 2.06 2.846a5.653 5.653 0 0 0 3.344 1.063c.916 0 1.789-.156 2.62-.469.844-.324 1.5-.762 1.97-1.315h5.44c-.41 1.201-1.12 2.306-2.133 3.315a11.121 11.121 0 0 1-3.56 2.395 10.56 10.56 0 0 1-4.156.865c-1.964 0-3.771-.48-5.422-1.441a10.823 10.823 0 0 1-3.94-3.927 10.494 10.494 0 0 1-1.445-5.368c0-1.993.475-3.83 1.427-5.512a10.786 10.786 0 0 1 3.94-4.016c1.675-.997 3.518-1.496 5.53-1.496a9.82 9.82 0 0 1 4.084.865 10.378 10.378 0 0 1 3.343 2.342 10.735 10.735 0 0 1 2.26 3.44c.542 1.309.813 2.672.813 4.089 0 .348-.085 1.123-.253 2.324zm-15.994-4.359h11.295a5.434 5.434 0 0 0-1.247-2.072 5.71 5.71 0 0 0-1.97-1.369 5.995 5.995 0 0 0-2.367-.468c-1.265 0-2.44.366-3.524 1.099-1.085.72-1.814 1.657-2.187 2.81z" fill="url(#b)"/>
    <path d="M51.068 124.334v-20.445h4.463v1.855h.073c.554-.888 1.174-1.525 1.861-1.909.699-.396 1.548-.595 2.548-.595h.38v4.756c-1.181 0-2.181.318-3 .955a3.296 3.296 0 0 0-.958 1.188 4.124 4.124 0 0 0-.38 1.351 18.48 18.48 0 0 0-.072 1.82v11.024h-4.915z" fill="url(#c)"/>
    <path d="M63.897 124.334V97.08h4.915v8.952h.073c.65-.936 1.548-1.633 2.692-2.089a9.505 9.505 0 0 1 3.633-.703 9.77 9.77 0 0 1 4.102.883 9.829 9.829 0 0 1 3.307 2.378 10.583 10.583 0 0 1 2.133 3.494c.506 1.321.759 2.696.759 4.125 0 1.249-.241 2.564-.723 3.945-.47 1.381-1.109 2.546-1.916 3.495a9.562 9.562 0 0 1-1.554 1.495 9.875 9.875 0 0 1-1.771 1.026 9.7 9.7 0 0 1-2.024.667 9.552 9.552 0 0 1-2.169.252c-3.096 0-5.385-1.147-6.867-3.44h-.09v2.774h-4.5zm10.807-16.302c-1.675 0-3.127.558-4.356 1.675-1.216 1.105-1.825 2.486-1.825 4.143 0 1.189.26 2.27.777 3.242a5.754 5.754 0 0 0 2.169 2.288c.94.552 2.018.829 3.235.829 1.144 0 2.162-.265 3.054-.793a5.459 5.459 0 0 0 2.078-2.198 6.46 6.46 0 0 0 .741-3.062c0-1.141-.247-2.173-.74-3.098a5.55 5.55 0 0 0-2.097-2.216c-.892-.54-1.904-.81-3.036-.81z" fill="url(#d)"/>
    <path d="M89.304 124.334v-20.445h4.915v20.445h-4.915zm.506-22.805v-3.53h3.922v3.53H89.81z" fill="url(#e)"/>
    <path d="M111.023 124.334V97.08H117.203c1.301 0 2.422.06 3.362.18.939.12 1.843.402 2.71.847a6.796 6.796 0 0 1 1.97 1.513 6.97 6.97 0 0 1 1.374 2.179c.337.805.506 1.616.506 2.432a6.31 6.31 0 0 1-.795 3.098c-.519.949-1.253 1.652-2.205 2.108 1.482.468 2.626 1.291 3.433 2.468.82 1.177 1.229 2.552 1.229 4.125 0 1.309-.283 2.521-.849 3.638-.566 1.105-1.392 2.06-2.476 2.864a8.031 8.031 0 0 1-3.253 1.405c-1.181.216-2.626.349-4.337.397h-6.849zm5.078-4.9h2.114c.904 0 1.681-.06 2.332-.18a4.985 4.985 0 0 0 1.843-.793c.891-.588 1.337-1.471 1.337-2.648 0-.648-.156-1.194-.47-1.639-.301-.456-.753-.846-1.355-1.171a4.67 4.67 0 0 0-1.59-.45c-.518-.06-1.181-.09-1.988-.09h-2.223v6.971zm0-11.888h.958c1.65 0 2.801-.133 3.451-.397.482-.228.862-.57 1.139-1.026.277-.457.416-.955.416-1.496 0-.528-.157-1.008-.47-1.441a2.63 2.63 0 0 0-1.247-.954c-.386-.192-.976-.288-1.771-.288-.35 0-.633.006-.85.018-.217 0-.452.006-.705.018h-.921v5.566z" fill="url(#f)"/>
    <path d="M153.725 103.889v20.445h-4.518v-2.774h-.073c-.747 1.044-1.771 1.879-3.072 2.503-1.289.625-2.584.937-3.885.937-1.53 0-2.94-.3-4.229-.901a9.667 9.667 0 0 1-3.325-2.539c-1.711-2.042-2.567-4.522-2.567-7.44 0-.912.085-1.801.253-2.666a9.805 9.805 0 0 1 .832-2.431c.385-.757.903-1.507 1.554-2.252 1.036-1.201 2.187-2.089 3.452-2.666 1.277-.576 2.668-.865 4.174-.865 1.41 0 2.705.301 3.886.901 1.193.601 2.192 1.477 3 2.63v-2.882h4.518zm-4.681 10.195c0-.864-.145-1.663-.434-2.395a5.766 5.766 0 0 0-1.21-1.928 5.403 5.403 0 0 0-1.88-1.261 6.04 6.04 0 0 0-2.385-.468c-1.796 0-3.271.594-4.428 1.783-1.145 1.177-1.717 2.672-1.717 4.485 0 1.658.596 3.057 1.789 4.197 1.193 1.141 2.621 1.712 4.283 1.712 1.157 0 2.193-.265 3.109-.793a5.543 5.543 0 0 0 2.114-2.198c.506-.936.759-1.981.759-3.134z" fill="url(#g)"/>
    <path d="M173.06 117.687h5.548a9.993 9.993 0 0 1-2.223 3.837 10.751 10.751 0 0 1-3.614 2.557 10.694 10.694 0 0 1-4.338.919c-1.385 0-2.759-.276-4.12-.829-1.361-.552-2.53-1.296-3.506-2.233a10.755 10.755 0 0 1-2.512-3.657 11.369 11.369 0 0 1-.831-4.305c0-1.477.283-2.864.849-4.161a10.903 10.903 0 0 1 2.367-3.44 10.713 10.713 0 0 1 3.506-2.306 10.933 10.933 0 0 1 4.211-.829 10.7 10.7 0 0 1 4.374.937 10.948 10.948 0 0 1 3.668 2.63 9.455 9.455 0 0 1 2.169 3.873h-5.548c-1.06-1.765-2.639-2.648-4.735-2.648-1.157 0-2.187.264-3.09.792a5.494 5.494 0 0 0-2.097 2.162c-.494.925-.741 1.945-.741 3.062 0 1.165.259 2.222.777 3.17a5.661 5.661 0 0 0 2.223 2.198c.952.528 2.012.793 3.181.793a5.06 5.06 0 0 0 1.735-.307 5.483 5.483 0 0 0 1.554-.864c.482-.384.88-.835 1.193-1.351z" fill="url(#h)"/>
    <path d="M197.744 117.687h5.548a9.993 9.993 0 0 1-2.223 3.837 10.741 10.741 0 0 1-3.614 2.557 10.69 10.69 0 0 1-4.337.919c-1.386 0-2.759-.276-4.121-.829-1.361-.552-2.53-1.296-3.506-2.233a10.77 10.77 0 0 1-2.512-3.657 11.369 11.369 0 0 1-.831-4.305c0-1.477.283-2.864.849-4.161a10.922 10.922 0 0 1 2.368-3.44 10.703 10.703 0 0 1 3.506-2.306 10.93 10.93 0 0 1 4.211-.829c1.506 0 2.963.313 4.373.937a10.952 10.952 0 0 1 3.669 2.63 9.442 9.442 0 0 1 2.168 3.873h-5.548c-1.06-1.765-2.638-2.648-4.735-2.648-1.156 0-2.186.264-3.09.792a5.491 5.491 0 0 0-2.096 2.162c-.494.925-.741 1.945-.741 3.062 0 1.165.259 2.222.777 3.17a5.655 5.655 0 0 0 2.223 2.198c.951.528 2.012.793 3.18.793.591 0 1.169-.102 1.735-.307a5.47 5.47 0 0 0 1.554-.864c.482-.384.88-.835 1.193-1.351z" fill="url(#i)"/>
    <path d="M228.501 103.889v20.445h-4.518v-2.774h-.073c-.747 1.044-1.771 1.879-3.072 2.503-1.289.625-2.584.937-3.885.937-1.53 0-2.94-.3-4.229-.901a9.667 9.667 0 0 1-3.325-2.539c-1.711-2.042-2.567-4.522-2.567-7.44 0-.912.085-1.801.253-2.666a9.805 9.805 0 0 1 .832-2.431c.385-.757.903-1.507 1.554-2.252 1.036-1.201 2.187-2.089 3.452-2.666 1.277-.576 2.668-.865 4.174-.865 1.41 0 2.705.301 3.886.901 1.192.601 2.192 1.477 3 2.63v-2.882h4.518zm-4.681 10.195c0-.864-.145-1.663-.434-2.395a5.753 5.753 0 0 0-1.211-1.928 5.39 5.39 0 0 0-1.879-1.261 6.04 6.04 0 0 0-2.385-.468c-1.796 0-3.272.594-4.428 1.783-1.145 1.177-1.717 2.672-1.717 4.485 0 1.658.596 3.057 1.789 4.197 1.193 1.141 2.621 1.712 4.283 1.712 1.157 0 2.193-.265 3.109-.793a5.543 5.543 0 0 0 2.114-2.198c.506-.936.759-1.981.759-3.134z" fill="url(#j)"/>
    <path d="M233.143 124.334v-20.445h4.464v1.855h.072c.555-.888 1.175-1.525 1.862-1.909.699-.396 1.548-.595 2.548-.595h.379v4.756c-1.18 0-2.18.318-3 .955-.433.348-.753.744-.957 1.188a4.118 4.118 0 0 0-.38 1.351 18.556 18.556 0 0 0-.072 1.82v11.024h-4.916z" fill="url(#k)"/>
    <path d="M266.737 103.889v20.445h-4.518v-2.774h-.072c-.747 1.044-1.771 1.879-3.072 2.503-1.29.625-2.585.937-3.886.937-1.53 0-2.94-.3-4.229-.901a9.676 9.676 0 0 1-3.325-2.539c-1.711-2.042-2.566-4.522-2.566-7.44 0-.912.084-1.801.253-2.666a9.844 9.844 0 0 1 .831-2.431c.386-.757.904-1.507 1.554-2.252 1.036-1.201 2.187-2.089 3.452-2.666 1.277-.576 2.669-.865 4.175-.865 1.409 0 2.704.301 3.885.901 1.193.601 2.193 1.477 3 2.63v-2.882h4.518zm-4.681 10.195c0-.864-.144-1.663-.433-2.395a5.769 5.769 0 0 0-1.211-1.928 5.394 5.394 0 0 0-1.88-1.261 6.037 6.037 0 0 0-2.385-.468c-1.795 0-3.271.594-4.428 1.783-1.144 1.177-1.717 2.672-1.717 4.485 0 1.658.597 3.057 1.79 4.197 1.192 1.141 2.62 1.712 4.283 1.712 1.156 0 2.192-.265 3.108-.793a5.536 5.536 0 0 0 2.114-2.198c.506-.936.759-1.981.759-3.134z" fill="url(#l)"/>
    <path d="M272.121 124.334v-16.086h-2.422v-4.359h2.422V97.08h4.915v6.809H280v4.359h-2.964v16.086h-4.915z" fill="url(#m)"/>
    <path d="M139.756 20.831c-5.535 0-10.043 4.517-10.043 10.062 0 5.545 4.508 10.061 10.043 10.061 5.536 0 10.044-4.516 10.044-10.061.057-5.546-4.451-10.062-10.044-10.062z" fill="#fff"/>
    <path d="M118.529 13.114a.365.365 0 0 0 0 .343c.057.057.057.114.114.114l10.671 6.231a.362.362 0 0 0 .342 0c.057 0 .057-.057.115-.114v-.057a12.913 12.913 0 0 1 4.108-4.516c1.769-1.258 3.652-2.001 5.649-2.344h.057c.057 0 .057 0 .114-.057a.275.275 0 0 0 .115-.343L137.531.25c0-.057-.057-.114-.057-.114-.057-.115-.171-.172-.342-.115h-.057a26.903 26.903 0 0 0-10.842 4.574c-3.196 2.172-5.821 5.145-7.704 8.518z" fill="#92278F"/>
    <path d="M112.423 36.552c.057.115.171.172.285.23.057 0 .115 0 .172-.058l11.526-4.46c.114-.056.229-.17.229-.285v-.171a14.262 14.262 0 0 1-.971-6.06c.115-2.115.742-4.116 1.712-5.889v-.057c0-.057.057-.057.057-.114 0-.114-.057-.286-.171-.343l-10.842-5.831c-.057 0-.114-.057-.171-.057a.313.313 0 0 0-.285.171c-1.826 3.373-2.967 7.203-3.253 11.32-.342 4.116.286 8.06 1.712 11.604z" fill="#005BAA"/>
    <path d="M127.031 55.818c.115.057.229 0 .343-.115.057-.057.057-.114.057-.171l3.652-11.776c.057-.115 0-.286-.114-.343-.057-.058-.057-.058-.114-.058h-.057c-1.941-.571-3.767-1.543-5.307-2.972-1.598-1.43-2.796-3.145-3.538-4.974v-.057c0-.057-.057-.057-.057-.114-.114-.115-.229-.115-.343-.058l-11.298 4.917c-.057 0-.114.057-.114.114-.057.114-.114.229-.057.343 1.483 3.544 3.823 6.803 6.847 9.547 2.968 2.687 6.448 4.63 10.1 5.717z" fill="#009BDF"/>
    <path d="M151.055 56.39c.114-.058.171-.172.114-.343 0-.058-.057-.115-.057-.172l-6.848-10.233c-.057-.114-.228-.172-.342-.114-.057 0-.057 0-.114.057 0 0-.057 0-.057.057a13.726 13.726 0 0 1-5.65 2.287c-2.111.343-4.165.171-6.105-.343h-.171c-.115 0-.229.114-.286.228l-3.252 11.891v.172c0 .114.114.228.228.285h.057c3.709 1.03 7.703 1.315 11.698.63a26.932 26.932 0 0 0 10.785-4.403z" fill="#00A651"/>
    <path d="M166.747 38.039a.315.315 0 0 0-.171-.286c-.057-.057-.114-.057-.171-.057l-12.269-.972c-.114 0-.228.057-.342.171 0 .057-.057.057-.057.115v.057c-.115 2-.685 4.002-1.712 5.888a13.69 13.69 0 0 1-4.052 4.574h-.057c-.057 0-.057.057-.114.114-.057.114-.057.286 0 .343l7.304 9.947.114.114a.364.364 0 0 0 .343 0c3.081-2.23 5.82-5.202 7.76-8.803 2.054-3.545 3.139-7.375 3.424-11.205z" fill="#FFF200"/>
    <path d="M162.068 14.257c-.114-.057-.228-.114-.342-.057a.123.123 0 0 0-.115.114l-8.502 8.976c-.057.114-.114.228-.057.343 0 .057.057.057.057.114l.057.057c1.484 1.372 2.682 3.03 3.481 5.03.799 2.002 1.084 4.06.97 6.06V35.066c.057.114.171.229.285.229l12.326.571c.057 0 .114 0 .171-.057.114-.057.171-.171.228-.286v-.057a26.615 26.615 0 0 0-1.94-11.605c-1.483-3.716-3.823-6.974-6.619-9.604z" fill="#F68B1F"/>
    <path d="M140.555 3.224c-.114 0-.228.114-.285.229v.171l1.826 12.234c0 .114.114.229.228.286h.171a13.098 13.098 0 0 1 6.106.4c2.054.572 3.88 1.6 5.364 2.973h.057c.057 0 .057.057.114.057.114.057.286 0 .343-.115l8.046-9.318c.057-.057.057-.057.057-.114.057-.115 0-.229-.115-.343a27.13 27.13 0 0 0-10.328-5.66 25.018 25.018 0 0 0-11.584-.8z" fill="#ED1C24"/>
    <path d="M139.756 20.66c-5.649 0-10.214 4.573-10.214 10.233s4.565 10.233 10.214 10.233 10.215-4.574 10.215-10.233c0-5.66-4.566-10.233-10.215-10.233zm7.418 16.007c.172-.4.229-.915.229-1.258-.229.172-.4.4-.685.572-.685.514-1.484.857-2.168.971l-1.941-2.172 1.427 2.515a6.962 6.962 0 0 1-1.655 1.83c-.228.171-.456.343-.742.457.343.057.856.172 1.256.172-.97.343-2.055.571-3.139.571-1.084 0-2.168-.171-3.138-.571.456 0 .913-.057 1.312-.172a5.273 5.273 0 0 1-.742-.457 6.885 6.885 0 0 1-1.654-1.772l1.426-2.516-1.997 2.173c-.742-.172-1.484-.515-2.168-.972a5.959 5.959 0 0 1-.685-.572c.057.4.114.858.228 1.258a9.318 9.318 0 0 1-1.997-5.774v-.286c.114.457.342.858.57 1.2.058-.285.115-.571.229-.857.285-.857.685-1.543 1.198-2.115l2.796.572v-.058l-2.625-1.2c-.057-.743 0-1.544.286-2.401.114-.286.171-.572.342-.8-.342.171-.856.4-1.198.686 1.255-1.83 3.081-3.202 5.249-3.83-.399.228-.741.628-1.027.914.286-.057.571-.057.856-.057.856 0 1.712.171 2.397.514l.342 2.859h.057l.343-2.859c.684-.285 1.483-.514 2.396-.514.286 0 .571 0 .856.057-.285-.286-.627-.686-1.027-.915 2.169.63 4.052 2.001 5.25 3.83-.342-.285-.856-.514-1.198-.686.114.23.228.515.342.8.285.801.342 1.659.285 2.402l-2.625 1.2v.058l2.797-.572c.513.572.913 1.258 1.198 2.115.114.286.171.572.228.858.171-.343.457-.8.571-1.2v.285a9.688 9.688 0 0 1-2.055 5.717z" fill="#000"/>
    <path d="m135.648 29.52 1.598 4.86h5.078l1.598-4.86-4.166-2.972-4.108 2.973z" fill="#000"/>
    <path d="M110.198 67.937v13.72h7.817V78.57h-4.279V67.937h-3.538zM124.578 73.54c-1.598 0-2.568 1.2-2.568 2.63 0 1.543.97 2.8 2.511 2.8 1.483 0 2.682-1.086 2.682-2.686-.058-1.658-1.199-2.744-2.625-2.744zm-5.935 2.686c0-3.087 2.283-5.773 5.307-5.773 1.312 0 2.168.457 3.138 1.314v-1.143h3.253v11.033h-3.31v-1.086s-1.198 1.315-3.252 1.315c-3.082.057-5.136-2.115-5.136-5.66zM140.156 81.657h-7.875v-13.72h3.538V78.57h4.337v3.087zM144.949 81.657h-3.31V70.681h3.31v10.976zm-3.652-13.777c0-1.086.913-2 1.997-2s1.997.857 1.997 2a2.048 2.048 0 0 1-2.054 2.058 2.026 2.026 0 0 1-1.94-2.058zM151.853 73.31c-1.54 0-2.282 1.259-2.282 2.63 0 1.43.856 2.573 2.282 2.573 1.655 0 2.568-1.315 2.568-2.572-.057-1.43-.856-2.63-2.568-2.63zm-5.535 2.63c0-2.972 1.883-5.487 4.737-5.487 1.369 0 2.339.457 3.252 1.429v-1.258h3.139v9.661c0 3.373-2.568 5.145-5.593 5.145-2.681 0-5.021-1.372-5.363-3.83h3.709c.456.743.913.915 1.769.915 1.141 0 2.225-.515 2.225-1.715V80c-.628.571-1.826 1.257-3.138 1.257-2.797.057-4.737-2.287-4.737-5.316zM164.921 73.54c-1.598 0-2.568 1.2-2.568 2.63 0 1.543.97 2.8 2.511 2.8 1.483 0 2.682-1.086 2.682-2.686-.057-1.658-1.199-2.744-2.625-2.744zm-5.935 2.686c0-3.087 2.283-5.773 5.307-5.773 1.313 0 2.169.457 3.139 1.314v-1.143h3.252v11.033h-3.309v-1.086s-1.199 1.315-3.253 1.315c-3.081.057-5.136-2.115-5.136-5.66z" fill="#fff"/>
    <defs>
        <linearGradient id="a" x1="-30.205" y1="130.158" x2="321.962" y2="130.158" gradientUnits="userSpaceOnUse">
            <stop stop-color="#A87D35"/>
            <stop offset="1" stop-color="#D5AF71"/>
        </linearGradient>
        <linearGradient id="b" x1="-30.205" y1="130.158" x2="321.962" y2="130.158" gradientUnits="userSpaceOnUse">
            <stop stop-color="#A87D35"/>
            <stop offset="1" stop-color="#D5AF71"/>
        </linearGradient>
        <linearGradient id="c" x1="-30.205" y1="130.158" x2="321.962" y2="130.158" gradientUnits="userSpaceOnUse">
            <stop stop-color="#A87D35"/>
            <stop offset="1" stop-color="#D5AF71"/>
        </linearGradient>
        <linearGradient id="d" x1="-30.205" y1="130.158" x2="321.962" y2="130.158" gradientUnits="userSpaceOnUse">
            <stop stop-color="#A87D35"/>
            <stop offset="1" stop-color="#D5AF71"/>
        </linearGradient>
        <linearGradient id="e" x1="-30.205" y1="130.158" x2="321.962" y2="130.158" gradientUnits="userSpaceOnUse">
            <stop stop-color="#A87D35"/>
            <stop offset="1" stop-color="#D5AF71"/>
        </linearGradient>
        <linearGradient id="f" x1="-30.205" y1="130.158" x2="321.962" y2="130.158" gradientUnits="userSpaceOnUse">
            <stop stop-color="#A87D35"/>
            <stop offset="1" stop-color="#D5AF71"/>
        </linearGradient>
        <linearGradient id="g" x1="-30.205" y1="130.158" x2="321.962" y2="130.158" gradientUnits="userSpaceOnUse">
            <stop stop-color="#A87D35"/>
            <stop offset="1" stop-color="#D5AF71"/>
        </linearGradient>
        <linearGradient id="h" x1="-30.205" y1="130.158" x2="321.962" y2="130.158" gradientUnits="userSpaceOnUse">
            <stop stop-color="#A87D35"/>
            <stop offset="1" stop-color="#D5AF71"/>
        </linearGradient>
        <linearGradient id="i" x1="-30.205" y1="130.158" x2="321.962" y2="130.158" gradientUnits="userSpaceOnUse">
            <stop stop-color="#A87D35"/>
            <stop offset="1" stop-color="#D5AF71"/>
        </linearGradient>
        <linearGradient id="j" x1="-30.205" y1="130.158" x2="321.962" y2="130.158" gradientUnits="userSpaceOnUse">
            <stop stop-color="#A87D35"/>
            <stop offset="1" stop-color="#D5AF71"/>
        </linearGradient>
        <linearGradient id="k" x1="-30.205" y1="130.158" x2="321.962" y2="130.158" gradientUnits="userSpaceOnUse">
            <stop stop-color="#A87D35"/>
            <stop offset="1" stop-color="#D5AF71"/>
        </linearGradient>
        <linearGradient id="l" x1="-30.205" y1="130.158" x2="321.962" y2="130.158" gradientUnits="userSpaceOnUse">
            <stop stop-color="#A87D35"/>
            <stop offset="1" stop-color="#D5AF71"/>
        </linearGradient>
        <linearGradient id="m" x1="-30.205" y1="130.158" x2="321.962" y2="130.158" gradientUnits="userSpaceOnUse">
            <stop stop-color="#A87D35"/>
            <stop offset="1" stop-color="#D5AF71"/>
        </linearGradient>
    </defs>
</svg>
