<svg width="176" height="176" viewBox="0 0 176 176" fill="none" xmlns="http://www.w3.org/2000/svg">
<path d="M111.913 52.6959C111.305 52.6959 110.696 52.0872 110.696 51.4785C110.696 50.8698 111.305 50.2611 111.913 50.2611C112.522 50.2611 113.131 50.8698 113.131 51.4785C113.131 52.0872 112.522 52.6959 111.913 52.6959ZM36.4351 111.739C36.4351 83.435 59.5655 60.6089 87.8698 60.6089C116.174 60.6089 139.305 83.435 139.305 111.739C139.305 139.739 116.174 162.87 87.8698 162.87C59.5655 162.87 36.4351 140.044 36.4351 111.739ZM107.957 33.8263C109.174 34.1307 109.783 35.3481 109.479 36.5654C109.174 37.7828 107.957 38.3915 106.739 38.0872C105.522 37.7828 104.913 36.5654 105.218 35.3481C105.522 34.1307 106.739 33.522 107.957 33.8263ZM110.087 29.2611C110.696 29.2611 111.305 29.8698 111.305 30.4785C111.305 31.0872 110.696 31.6959 110.087 31.6959C109.479 31.6959 108.87 31.0872 108.87 30.4785C108.87 29.8698 109.479 29.2611 110.087 29.2611ZM109.174 24.6959C109.783 24.6959 110.392 25.3046 110.392 25.9133C110.392 26.522 109.783 27.1307 109.174 27.1307C108.565 27.1307 107.957 26.522 107.957 25.9133C107.957 25.3046 108.261 24.6959 109.174 24.6959ZM125 36.5654C125.609 36.5654 126.218 37.1741 126.218 37.7828C126.218 38.3915 125.609 39.0002 125 39.0002C124.392 39.0002 123.783 38.3915 123.783 37.7828C123.783 37.1741 124.087 36.5654 125 36.5654ZM123.783 32.0002C124.392 32.0002 125 32.6089 125 33.2176C125 33.8263 124.392 34.435 123.783 34.435C123.174 34.435 122.565 33.8263 122.565 33.2176C122.565 32.6089 123.174 32.0002 123.783 32.0002ZM121.957 28.0437C122.565 28.0437 123.174 28.6524 123.174 29.2611C123.174 29.8698 122.565 30.4785 121.957 30.4785C121.348 30.4785 120.739 29.8698 120.739 29.2611C120.739 28.6524 121.348 28.0437 121.957 28.0437ZM118.913 24.6959C119.522 24.6959 120.131 25.3046 120.131 25.9133C120.131 26.522 119.522 27.1307 118.913 27.1307C118.305 27.1307 117.696 26.522 117.696 25.9133C117.696 25.3046 118.305 24.6959 118.913 24.6959ZM115.261 21.9568C115.87 21.9568 116.479 22.5655 116.479 23.1741C116.479 23.7828 115.87 24.3915 115.261 24.3915C114.652 24.3915 114.044 23.7828 114.044 23.1741C114.044 22.5655 114.348 21.9568 115.261 21.9568ZM111 20.435C111.609 20.435 112.218 21.0437 112.218 21.6524C112.218 22.2611 111.609 22.8698 111 22.8698C110.392 22.8698 109.783 22.2611 109.783 21.6524C109.783 21.0437 110.392 20.435 111 20.435ZM107.044 20.7394C107.652 20.7394 108.261 21.3481 108.261 21.9568C108.261 22.5655 107.652 23.1741 107.044 23.1741C106.435 23.1741 105.826 22.5655 105.826 21.9568C105.826 21.3481 106.435 20.7394 107.044 20.7394ZM104 17.3915C104.609 17.3915 105.218 18.0002 105.218 18.6089C105.218 19.2176 104.609 19.8263 104 19.8263C103.392 19.8263 102.783 19.2176 102.783 18.6089C102.783 18.0002 103.392 17.3915 104 17.3915ZM100.044 14.6524C100.652 14.6524 101.261 15.2611 101.261 15.8698C101.261 16.4785 100.652 17.0872 100.044 17.0872C99.4351 17.0872 98.8264 16.4785 98.8264 15.8698C98.8264 15.2611 99.4351 14.6524 100.044 14.6524ZM96.0872 13.1307C96.6959 13.1307 97.3046 13.7394 97.3046 14.3481C97.3046 14.9568 96.6959 15.5655 96.0872 15.5655C95.4785 15.5655 94.8698 14.9568 94.8698 14.3481C94.8698 13.7394 95.4785 13.1307 96.0872 13.1307ZM91.8264 12.522C92.4351 12.522 93.0438 13.1307 93.0438 13.7394C93.0438 14.3481 92.4351 14.9568 91.8264 14.9568C91.2177 14.9568 90.609 14.3481 90.609 13.7394C90.609 13.1307 91.2177 12.522 91.8264 12.522ZM52.2611 46.0002C51.0438 46.6089 49.8264 46.3046 49.2177 45.0872C48.609 43.8698 48.9133 42.6524 50.1307 42.0437C51.3481 41.435 52.5655 41.7394 53.1742 42.9568C53.7829 43.8698 53.4785 45.3915 52.2611 46.0002ZM68.6959 38.0872C67.4785 38.3915 66.2611 37.7828 65.9568 36.5654C65.6525 35.3481 66.2611 34.1307 67.4785 33.8263C68.6959 33.522 69.9133 34.1307 70.2177 35.3481C70.8264 36.5654 69.9133 37.7828 68.6959 38.0872ZM87.8698 35.6524C86.6524 35.6524 85.4351 34.7394 85.4351 33.2176C85.4351 31.6959 86.3481 30.7828 87.8698 30.7828C89.3916 30.7828 90.3046 31.6959 90.3046 33.2176C90.0003 34.7394 89.0872 35.6524 87.8698 35.6524ZM65.6525 31.6959C65.0438 31.6959 64.4351 31.0872 64.4351 30.4785C64.4351 29.8698 65.0438 29.2611 65.6525 29.2611C66.2611 29.2611 66.8698 29.8698 66.8698 30.4785C66.8698 31.0872 66.2611 31.6959 65.6525 31.6959ZM66.5655 27.1307C65.9568 27.1307 65.3481 26.522 65.3481 25.9133C65.3481 25.3046 65.9568 24.6959 66.5655 24.6959C67.1742 24.6959 67.7829 25.3046 67.7829 25.9133C67.7829 26.522 67.1742 27.1307 66.5655 27.1307ZM50.7394 39.3046C50.1307 39.3046 49.522 38.6959 49.522 38.0872C49.522 37.4785 50.1307 36.8698 50.7394 36.8698C51.3481 36.8698 51.9568 37.4785 51.9568 38.0872C51.9568 38.6959 51.3481 39.3046 50.7394 39.3046ZM51.9568 34.7394C51.3481 34.7394 50.7394 34.1307 50.7394 33.522C50.7394 32.9133 51.3481 32.3046 51.9568 32.3046C52.5655 32.3046 53.1742 32.9133 53.1742 33.522C53.1742 34.1307 52.5655 34.7394 51.9568 34.7394ZM53.7829 30.7828C53.1742 30.7828 52.5655 30.1741 52.5655 29.5654C52.5655 28.9568 53.1742 28.3481 53.7829 28.3481C54.3916 28.3481 55.0003 28.9568 55.0003 29.5654C55.0003 30.1741 54.3916 30.7828 53.7829 30.7828ZM56.8264 27.1307C56.2177 27.1307 55.609 26.522 55.609 25.9133C55.609 25.3046 56.2177 24.6959 56.8264 24.6959C57.4351 24.6959 58.0438 25.3046 58.0438 25.9133C58.0438 26.522 57.4351 27.1307 56.8264 27.1307ZM60.4785 24.3915C59.8698 24.3915 59.2611 23.7828 59.2611 23.1741C59.2611 22.5655 59.8698 21.9568 60.4785 21.9568C61.0872 21.9568 61.6959 22.5655 61.6959 23.1741C61.6959 23.7828 61.0872 24.3915 60.4785 24.3915ZM64.4351 22.8698C63.8264 22.8698 63.2177 22.2611 63.2177 21.6524C63.2177 21.0437 63.8264 20.435 64.4351 20.435C65.0438 20.435 65.6525 21.0437 65.6525 21.6524C65.9568 22.2611 65.3481 22.8698 64.4351 22.8698ZM68.6959 23.1741C68.0872 23.1741 67.4785 22.5655 67.4785 21.9568C67.4785 21.3481 68.0872 20.7394 68.6959 20.7394C69.3046 20.7394 69.9133 21.3481 69.9133 21.9568C69.9133 22.5655 69.3046 23.1741 68.6959 23.1741ZM71.7394 19.8263C71.1307 19.8263 70.522 19.2176 70.522 18.6089C70.522 18.0002 71.1307 17.3915 71.7394 17.3915C72.3481 17.3915 72.9568 18.0002 72.9568 18.6089C72.9568 19.2176 72.3481 19.8263 71.7394 19.8263ZM75.3916 17.0872C74.7829 17.0872 74.1742 16.4785 74.1742 15.8698C74.1742 15.2611 74.7829 14.6524 75.3916 14.6524C76.0003 14.6524 76.609 15.2611 76.609 15.8698C76.9133 16.7828 76.3046 17.0872 75.3916 17.0872ZM79.6524 15.5655C79.0438 15.5655 78.4351 14.9568 78.4351 14.3481C78.4351 13.7394 79.0438 13.1307 79.6524 13.1307C80.2611 13.1307 80.8698 13.7394 80.8698 14.3481C80.8698 15.2611 80.2611 15.5655 79.6524 15.5655ZM87.8698 28.0437C87.2611 28.0437 86.6524 27.435 86.6524 26.8263C86.6524 26.2176 87.2611 25.6089 87.8698 25.6089C88.4785 25.6089 89.0872 26.2176 89.0872 26.8263C89.0872 27.435 88.4785 28.0437 87.8698 28.0437ZM87.8698 23.4785C87.2611 23.4785 86.6524 22.8698 86.6524 22.2611C86.6524 21.6524 87.2611 21.0437 87.8698 21.0437C88.4785 21.0437 89.0872 21.6524 89.0872 22.2611C89.0872 22.8698 88.4785 23.4785 87.8698 23.4785ZM87.8698 18.9133C87.2611 18.9133 86.6524 18.3046 86.6524 17.6959C86.6524 17.0872 87.2611 16.4785 87.8698 16.4785C88.4785 16.4785 89.0872 17.0872 89.0872 17.6959C89.0872 18.3046 88.4785 18.9133 87.8698 18.9133ZM83.9133 14.9568C83.3046 14.9568 82.6959 14.3481 82.6959 13.7394C82.6959 13.1307 83.3046 12.522 83.9133 12.522C84.522 12.522 85.1307 13.1307 85.1307 13.7394C85.1307 14.3481 84.522 14.9568 83.9133 14.9568ZM125.609 41.7394C126.826 42.3481 127.131 43.5654 126.522 44.7828C125.913 46.0002 124.392 46.3046 123.479 45.6959C122.261 45.0872 121.957 43.5654 122.565 42.6524C123.174 41.7394 124.392 41.1307 125.609 41.7394ZM96.0872 48.435C95.4785 48.435 94.8698 47.8263 94.8698 47.2176C94.8698 46.6089 95.4785 46.0002 96.0872 46.0002C96.6959 46.0002 97.3046 46.6089 97.3046 47.2176C97.3046 47.8263 96.6959 48.435 96.0872 48.435ZM63.8264 52.6959C63.2177 52.6959 62.609 52.0872 62.609 51.4785C62.609 50.8698 63.2177 50.2611 63.8264 50.2611C64.4351 50.2611 65.0438 50.8698 65.0438 51.4785C65.0438 52.0872 64.4351 52.6959 63.8264 52.6959ZM79.6524 48.435C79.0438 48.435 78.4351 47.8263 78.4351 47.2176C78.4351 46.6089 79.0438 46.0002 79.6524 46.0002C80.2611 46.0002 80.8698 46.6089 80.8698 47.2176C80.8698 47.8263 80.2611 48.435 79.6524 48.435Z" fill="white"/>
<path d="M97.3039 39.3043C97.6083 39.913 97.9126 40.5217 98.5213 41.1304C97.3039 40.826 96.0865 40.826 94.8691 40.826C95.4778 40.5217 96.0865 39.913 96.3909 39.3043C96.9996 39.3043 96.9996 39.3043 97.3039 39.3043ZM78.4344 39.3043C78.7387 39.3043 78.7387 39.3043 79.0431 39.3043C79.3474 39.913 79.9561 40.5217 80.5648 40.826C79.3474 40.826 78.13 41.1304 76.9126 41.1304C77.5213 40.826 78.13 39.913 78.4344 39.3043ZM71.4344 42.3478C70.5213 42.6521 69.3039 42.9565 68.3909 43.2608C68.9996 42.6521 69.3039 41.7391 69.3039 40.826C69.9126 41.4347 70.5213 42.0434 71.4344 42.3478ZM59.8691 46C60.1735 45.3913 60.4778 45.0869 60.4778 44.4782H60.7822C61.0865 44.4782 61.3909 44.1739 61.6952 44.1739C62.3039 44.4782 62.6083 44.7826 63.217 44.7826C61.9996 45.0869 60.7822 45.6956 59.8691 46ZM87.8691 38.3913C88.1735 39.3043 88.7822 39.913 89.3909 40.5217C88.7822 40.5217 88.1735 40.5217 87.8691 40.5217C87.5648 40.5217 86.6517 40.5217 86.3474 40.5217C86.9561 39.913 87.5648 39.3043 87.8691 38.3913ZM114.347 44.1739C114.652 44.4782 114.956 44.4782 115.26 44.4782H115.565C115.565 45.0869 115.869 45.6956 116.173 46C114.956 45.6956 114.043 45.0869 112.826 44.7826C113.13 44.4782 113.739 44.4782 114.347 44.1739ZM107.347 42.9565C106.434 42.6521 105.217 42.3478 104.304 42.0434C105.217 41.7391 105.826 41.1304 106.434 40.2173C106.434 41.4347 106.739 42.3478 107.347 42.9565ZM111.304 33.2174C112.217 32.913 112.826 32 113.13 31.0869C114.652 31.3913 116.173 31.6956 117.391 32.3043C118.608 32.6087 119.521 33.5217 120.13 34.1304C120.739 35.9565 121.347 37.7826 121.347 40.5217C120.434 40.826 119.826 41.7391 119.826 42.6521C119.217 43.8695 119.217 45.3913 120.739 46.3043C119.521 46.3043 118.304 45.3913 118.304 44.1739V43.8695C118.608 43.5652 118.608 43.2608 118.913 42.6521C119.217 41.1304 118.304 39.6087 116.782 39.3043C115.26 39 113.739 39.913 113.434 41.4347C113.434 41.7391 113.434 41.7391 113.434 42.0434C112.217 43.5652 109.478 42.6521 109.478 40.826C111.913 41.4347 112.826 40.2174 113.434 38.3913C113.739 37.1739 113.739 35.6521 111.913 34.7391C111.304 33.826 111.304 33.5217 111.304 33.2174Z" fill="#E62644"/>
<path d="M70.5215 27.4346C75.0868 24.9998 81.1737 24.3911 85.7389 24.9998V25.3042C85.1302 26.5216 85.1302 27.7389 86.3476 28.652C85.4346 28.9563 84.8259 29.565 84.5215 30.7824C82.6955 31.0868 82.3911 32.6085 82.3911 33.8259C82.3911 35.652 82.9998 36.8694 85.4346 37.1737C85.7389 38.3911 85.1302 39.6085 83.9129 40.2172C82.6955 40.8259 81.4781 39.9129 80.8694 38.6955C80.565 38.0868 80.565 37.7824 80.8694 37.1737C81.1737 35.652 80.2607 34.1303 78.7389 33.8259C78.4346 33.8259 78.1302 33.8259 78.1302 33.8259C76.6085 33.8259 75.3911 35.0433 75.3911 36.565C75.3911 37.1737 75.3911 37.4781 75.6955 37.7824C75.6955 38.6955 75.0868 39.6085 73.8694 39.9129C72.9563 40.2172 72.0433 39.6085 71.4346 38.9998C73.8694 38.3911 74.1737 36.565 73.565 35.0433C73.2607 33.8259 72.3476 32.6085 70.5215 32.6085C70.5215 31.9998 70.2172 31.6955 69.6085 31.3911C69.6085 29.8694 69.9129 28.652 70.5215 27.4346ZM89.9998 25.3042C94.565 24.6955 100.652 24.9998 105.217 27.7389C105.522 28.652 105.826 29.8694 106.13 31.3911C105.522 31.6955 105.217 31.9998 104.913 32.6085C103.087 32.6085 102.478 33.8259 101.869 35.0433C101.565 36.565 101.869 38.0868 104 38.9998C104 40.2172 103.087 41.4346 101.869 41.4346C100.652 41.4346 99.4346 40.5216 99.4346 39.3042C99.4346 38.9998 99.4346 38.3911 99.7389 38.0868C100.043 37.7824 100.043 37.1737 100.043 36.8694C100.043 35.3476 98.8259 34.1303 97.3042 34.1303C95.7824 34.1303 94.565 35.3476 94.565 36.8694C94.565 37.1737 94.565 37.4781 94.565 37.4781C94.2607 38.6955 92.7389 39.3042 91.5216 38.9998C90.9129 38.6955 90.3042 38.0868 89.9998 37.4781C92.4346 37.4781 93.0433 35.9563 93.0433 34.1303C93.0433 32.6085 92.4346 31.3911 90.9129 31.0868C90.6085 29.8694 89.9998 29.2607 89.0868 28.9563C89.9998 28.0433 90.3042 26.8259 89.6955 25.6085L89.9998 25.3042ZM58.652 32.3042C59.8694 31.6955 61.3911 31.3911 62.9129 31.0868C63.2172 31.9998 63.8259 32.9129 64.7389 33.2172C64.7389 33.5216 64.4346 33.8259 64.4346 34.4346C62.9129 35.3476 62.6085 36.565 63.2172 38.0868C63.5215 39.6085 64.7389 40.8259 67.1737 40.5216C67.1737 42.652 64.4346 43.2607 63.2172 41.7389C63.2172 41.4346 63.2172 41.4346 63.2172 41.1303C62.9129 39.6085 61.3911 38.6955 59.8694 38.9998C58.3476 39.3042 57.4346 40.8259 57.7389 42.3476C57.7389 42.652 58.0433 43.2607 58.3476 43.565C58.3476 44.4781 58.0433 45.3911 57.1302 45.6955C56.8259 45.9998 56.2172 45.9998 55.9129 45.9998C57.4346 45.0868 57.4346 43.565 56.8259 42.3476C55.6085 41.4346 55.3042 40.5216 54.3911 40.2172C54.6955 37.7824 54.9998 35.652 55.6085 33.8259C56.5215 33.2172 57.4346 32.6085 58.652 32.3042ZM91.8259 46.9129L87.8694 48.4346L83.6085 46.9129L87.8694 45.3911L91.8259 46.9129ZM61.0868 52.3911L60.7824 53.9129L60.4781 54.2172L60.1737 53.9129L58.9563 53.3042L59.2607 51.7824V51.4781H59.8694C59.8694 51.7824 61.0868 52.3911 61.0868 52.3911ZM114.652 52.3911L116.478 51.7824V52.0868L116.782 53.6085L115.261 54.2172H114.956V53.6085L114.652 52.3911Z" fill="#E62644"/>
<path d="M107.348 42.9562C106.739 42.3475 106.435 41.4345 106.435 40.5214C105.826 41.1301 105.217 41.7388 104.304 42.3475C105.217 42.3475 106.131 42.6519 107.348 42.9562ZM114.348 44.1736C113.739 44.478 113.435 44.7823 112.826 44.7823C114.044 45.0867 114.957 45.6954 116.174 45.9997C115.87 45.391 115.565 45.0867 115.565 44.478H115.261C114.957 44.478 114.652 44.1736 114.348 44.1736ZM87.8696 38.391C87.5653 39.3041 86.9566 39.9127 86.3479 40.5214C86.9566 40.5214 87.5653 40.5214 87.8696 40.5214C88.174 40.5214 89.087 40.5214 89.3914 40.5214C88.7827 39.9127 88.174 39.3041 87.8696 38.391ZM59.8696 45.9997C61.087 45.6954 62.0001 45.0867 63.2175 44.7823C62.6088 44.478 62.0001 44.478 61.6957 44.1736C61.3914 44.478 61.087 44.478 60.7827 44.478H60.4783C60.174 45.0867 59.8696 45.6954 59.8696 45.9997ZM71.4349 42.3475C70.5218 42.0432 69.9131 41.4345 69.3044 40.5214C69.3044 41.4345 69.0001 42.3475 68.3914 42.9562C69.3044 42.6519 70.5218 42.6519 71.4349 42.3475ZM78.4349 39.3041C78.1305 39.9127 77.8262 40.5214 77.2175 41.1301C78.4349 40.8258 79.6523 40.8258 80.8697 40.8258C80.261 40.5214 79.6523 39.9127 79.3479 39.3041C78.7392 39.3041 78.4349 39.3041 78.4349 39.3041ZM97.3044 39.3041C97.0001 39.3041 97.0001 39.3041 96.6957 39.3041C96.3914 39.9127 95.7827 40.5214 95.174 40.8258C96.3914 40.8258 97.6088 41.1301 98.8262 41.1301C98.2175 40.8258 97.6088 40.2171 97.3044 39.3041C97.3044 39.3041 97.3044 39.6084 97.3044 39.3041ZM125.609 41.7388C124.391 41.1301 123.174 41.4345 122.565 42.6519C121.957 43.8693 122.261 45.0867 123.478 45.6954C124.696 46.3041 125.913 45.9997 126.522 44.7823C127.131 43.8693 126.522 42.3475 125.609 41.7388ZM107.957 33.8258C106.739 33.5214 105.522 34.1301 105.217 35.3475C104.913 36.5649 105.522 37.7823 106.739 38.0867C107.957 38.391 109.174 37.7823 109.478 36.5649C110.087 35.3475 109.174 34.1301 107.957 33.8258ZM110.087 29.2606C109.478 29.2606 108.87 29.8693 108.87 30.478C108.87 31.0867 109.478 31.6954 110.087 31.6954C110.696 31.6954 111.304 31.0867 111.304 30.478C111.304 29.8693 111 29.2606 110.087 29.2606ZM109.174 24.6954C108.565 24.6954 107.957 25.3041 107.957 25.9127C107.957 26.5214 108.565 27.1301 109.174 27.1301C109.783 27.1301 110.391 26.5214 110.391 25.9127C110.391 25.3041 109.783 24.6954 109.174 24.6954ZM125 36.5649C124.391 36.5649 123.783 37.1736 123.783 37.7823C123.783 38.391 124.391 38.9997 125 38.9997C125.609 38.9997 126.217 38.391 126.217 37.7823C126.217 37.1736 125.609 36.5649 125 36.5649ZM123.783 31.9997C123.174 31.9997 122.565 32.6084 122.565 33.2171C122.565 33.8258 123.174 34.4345 123.783 34.4345C124.391 34.4345 125 33.8258 125 33.2171C125 32.6084 124.391 31.9997 123.783 31.9997ZM121.957 28.0432C121.348 28.0432 120.739 28.6519 120.739 29.2606C120.739 29.8693 121.348 30.478 121.957 30.478C122.565 30.478 123.174 29.8693 123.174 29.2606C123.174 28.6519 122.565 28.0432 121.957 28.0432ZM118.913 24.6954C118.304 24.6954 117.696 25.3041 117.696 25.9127C117.696 26.5214 118.304 27.1301 118.913 27.1301C119.522 27.1301 120.131 26.5214 120.131 25.9127C120.131 25.3041 119.522 24.6954 118.913 24.6954ZM115.261 21.9562C114.652 21.9562 114.044 22.5649 114.044 23.1736C114.044 23.7823 114.652 24.391 115.261 24.391C115.87 24.391 116.478 23.7823 116.478 23.1736C116.478 22.5649 115.87 21.9562 115.261 21.9562ZM111 20.4345C110.391 20.4345 109.783 21.0432 109.783 21.6519C109.783 22.2606 110.391 22.8693 111 22.8693C111.609 22.8693 112.217 22.2606 112.217 21.6519C112.217 21.0432 111.913 20.4345 111 20.4345ZM107.044 20.7388C106.435 20.7388 105.826 21.3475 105.826 21.9562C105.826 22.5649 106.435 23.1736 107.044 23.1736C107.652 23.1736 108.261 22.5649 108.261 21.9562C108.261 21.3475 107.652 20.7388 107.044 20.7388ZM104 17.391C103.391 17.391 102.783 17.9997 102.783 18.6084C102.783 19.2171 103.391 19.8258 104 19.8258C104.609 19.8258 105.217 19.2171 105.217 18.6084C105.217 17.9997 104.609 17.391 104 17.391ZM100.044 14.6519C99.4349 14.6519 98.8262 15.2606 98.8262 15.8693C98.8262 16.478 99.4349 17.0867 100.044 17.0867C100.652 17.0867 101.261 16.478 101.261 15.8693C101.565 15.2606 100.957 14.6519 100.044 14.6519ZM96.087 13.1301C95.4783 13.1301 94.8696 13.7388 94.8696 14.3475C94.8696 14.9562 95.4783 15.5649 96.087 15.5649C96.6957 15.5649 97.3044 14.9562 97.3044 14.3475C97.3044 13.7388 96.6957 13.1301 96.087 13.1301ZM91.8262 12.5214C91.2175 12.5214 90.6088 13.1301 90.6088 13.7388C90.6088 14.3475 91.2175 14.9562 91.8262 14.9562C92.4349 14.9562 93.0436 14.3475 93.0436 13.7388C93.0436 13.1301 92.4349 12.5214 91.8262 12.5214ZM52.261 45.9997C53.4783 45.391 53.7827 43.8693 53.174 42.9562C52.5653 41.7388 51.0436 41.4345 50.1305 42.0432C48.9131 42.6519 48.6088 43.8693 49.2175 45.0867C49.8262 45.9997 51.3479 46.3041 52.261 45.9997ZM68.6957 38.0867C69.9131 37.7823 70.5218 36.5649 70.2175 35.3475C69.9131 34.1301 68.6957 33.5214 67.4783 33.8258C66.261 34.1301 65.6523 35.3475 65.9566 36.5649C66.261 37.7823 67.4783 38.391 68.6957 38.0867ZM87.8696 35.6519C89.087 35.6519 90.3044 34.7388 90.3044 33.2171C90.3044 31.6954 89.087 31.0867 87.8696 31.0867C86.6523 31.0867 85.4349 31.9997 85.4349 33.5214C85.4349 35.0432 86.6523 35.6519 87.8696 35.6519ZM65.6523 31.6954C66.261 31.6954 66.8697 31.0867 66.8697 30.478C66.8697 29.8693 66.261 29.2606 65.6523 29.2606C65.0436 29.2606 64.4349 29.8693 64.4349 30.478C64.1305 31.0867 64.7392 31.6954 65.6523 31.6954ZM66.5653 27.1301C67.174 27.1301 67.7827 26.5214 67.7827 25.9127C67.7827 25.3041 67.174 24.6954 66.5653 24.6954C65.9566 24.6954 65.3479 25.3041 65.3479 25.9127C65.3479 26.5214 65.9566 27.1301 66.5653 27.1301ZM50.7392 39.3041C51.3479 39.3041 51.9566 38.6954 51.9566 38.0867C51.9566 37.478 51.3479 36.8693 50.7392 36.8693C50.1305 36.8693 49.5218 37.478 49.5218 38.0867C49.5218 38.6954 50.1305 39.3041 50.7392 39.3041ZM51.9566 34.7388C52.5653 34.7388 53.174 34.1301 53.174 33.5214C53.174 32.9127 52.5653 32.3041 51.9566 32.3041C51.3479 32.3041 50.7392 32.9127 50.7392 33.5214C50.4349 34.1301 51.0436 34.7388 51.9566 34.7388ZM53.7827 30.7823C54.3914 30.7823 55.0001 30.1736 55.0001 29.5649C55.0001 28.9562 54.3914 28.0432 53.7827 28.0432C53.174 28.0432 52.5653 28.6519 52.5653 29.2606C52.5653 29.8693 53.174 30.7823 53.7827 30.7823ZM56.8262 27.1301C57.4349 27.1301 58.0436 26.5214 58.0436 25.9127C58.0436 25.3041 57.4349 24.6954 56.8262 24.6954C56.2175 24.6954 55.6088 25.3041 55.6088 25.9127C55.6088 26.5214 56.2175 27.1301 56.8262 27.1301ZM60.4783 24.391C61.087 24.391 61.6957 23.7823 61.6957 23.1736C61.6957 22.5649 61.087 21.9562 60.4783 21.9562C59.8696 21.9562 59.261 22.5649 59.261 23.1736C59.261 23.7823 59.8696 24.391 60.4783 24.391ZM64.4349 22.8693C65.0436 22.8693 65.6523 22.2606 65.6523 21.6519C65.6523 21.0432 65.0436 20.4345 64.4349 20.4345C63.8262 20.4345 63.2175 21.0432 63.2175 21.6519C63.2175 22.2606 63.8262 22.8693 64.4349 22.8693ZM68.6957 23.1736C69.3044 23.1736 69.9131 22.5649 69.9131 21.9562C69.9131 21.3475 69.3044 20.7388 68.6957 20.7388C68.087 20.7388 67.4783 21.3475 67.4783 21.9562C67.4783 22.5649 67.7827 23.1736 68.6957 23.1736ZM71.7392 19.8258C72.3479 19.8258 72.9566 19.2171 72.9566 18.6084C72.9566 17.9997 72.3479 17.391 71.7392 17.391C71.1305 17.391 70.5218 17.9997 70.5218 18.6084C70.2175 19.2171 70.8262 19.8258 71.7392 19.8258ZM75.3914 17.0867C76.0001 17.0867 76.6088 16.478 76.6088 15.8693C76.6088 15.2606 76.0001 14.6519 75.3914 14.6519C74.7827 14.6519 74.174 15.2606 74.174 15.8693C74.174 16.7823 74.7827 17.0867 75.3914 17.0867ZM79.6523 15.5649C80.261 15.5649 80.8697 14.9562 80.8697 14.3475C80.8697 13.7388 80.261 13.1301 79.6523 13.1301C79.0436 13.1301 78.4349 13.7388 78.4349 14.3475C78.4349 14.9562 79.0436 15.5649 79.6523 15.5649ZM87.8696 28.0432C88.4783 28.0432 89.087 27.4345 89.087 26.8258C89.087 26.2171 88.4783 25.6084 87.8696 25.6084C87.261 25.6084 86.6523 26.2171 86.6523 26.8258C86.6523 27.4345 87.261 28.0432 87.8696 28.0432ZM87.8696 23.478C88.4783 23.478 89.087 22.8693 89.087 22.2606C89.087 21.6519 88.4783 21.0432 87.8696 21.0432C87.261 21.0432 86.6523 21.6519 86.6523 22.2606C86.6523 22.8693 87.261 23.478 87.8696 23.478ZM87.8696 18.9127C88.4783 18.9127 89.087 18.3041 89.087 17.6954C89.087 17.0867 88.4783 16.478 87.8696 16.478C87.261 16.478 86.6523 17.0867 86.6523 17.6954C86.6523 18.3041 87.261 18.9127 87.8696 18.9127ZM83.9131 14.9562C84.5218 14.9562 85.1305 14.3475 85.1305 13.7388C85.1305 13.1301 84.5218 12.5214 83.9131 12.5214C83.3044 12.5214 82.3914 13.1301 82.3914 13.7388C82.3914 14.3475 83.0001 14.9562 83.9131 14.9562ZM118.913 45.9997C119.826 46.6084 120.739 46.3041 121.957 45.9997C120.131 45.0867 119.522 44.478 120.131 42.3475C120.435 41.4345 121.044 40.8258 121.957 40.5214C121.348 32.6084 119.217 28.9562 111.913 25.6084L111.304 25.9127V26.2171C111.304 27.1301 110.696 27.7388 109.783 28.3475C111 28.6519 112.217 29.2606 112.217 30.7823C112.217 31.9997 111.304 32.6084 110.391 33.2171C110.696 33.8258 110.696 34.1301 110.696 35.0432C112.217 35.6519 112.522 36.5649 112.217 38.0867C111.609 40.2171 110.391 40.5214 108.261 39.9127C107.957 43.2606 111.609 44.478 113.435 42.0432C113.435 41.7388 113.435 41.7388 113.435 41.4345C113.739 40.2171 114.957 39.6084 116.174 39.6084C117.391 39.9127 118.304 41.1301 117.696 42.3475C117.696 42.6519 117.391 42.9562 117.087 43.2606C117.391 44.478 118 45.391 118.913 45.9997ZM85.7392 17.6954C85.7392 17.391 85.7392 17.391 85.7392 17.0867C76.3044 16.478 69.9131 22.5649 68.6957 31.6954C69.6088 31.9997 69.9131 32.3041 70.2175 33.2171C71.7392 33.2171 72.6523 33.8258 72.9566 35.3475C73.5653 37.478 72.3479 38.0867 70.5218 38.6954C71.1305 39.9127 72.3479 41.1301 73.8696 40.5214C75.087 40.2171 76.0001 38.9997 76.0001 37.7823C75.6957 37.478 75.6957 36.8693 75.6957 36.5649C75.6957 35.3475 76.6088 34.1301 78.1305 34.1301C79.3479 34.1301 80.5653 35.0432 80.5653 36.5649C80.5653 36.8693 80.5653 37.1736 80.5653 37.1736C80.8696 38.391 82.087 39.3041 83.3044 39.3041C84.8262 39.3041 86.0436 38.0867 86.0436 36.5649C83.9131 36.5649 82.6957 35.9562 82.6957 33.8258C82.6957 32.3041 83.3044 31.391 84.8262 31.0867C85.1305 29.2606 86.0436 28.9562 87.8696 28.6519C89.3914 28.9562 90.6088 28.9562 90.9131 31.0867C92.4349 31.391 93.0436 32.3041 93.0436 33.8258C93.0436 35.9562 91.8262 36.5649 89.6957 36.5649C90.0001 38.0867 90.9131 39.3041 92.4349 39.3041C93.6523 39.3041 94.8696 38.391 95.174 37.1736C95.174 36.8693 95.174 36.5649 95.174 36.5649C95.174 35.3475 96.087 34.1301 97.6088 34.1301C98.8262 34.1301 100.044 35.0432 100.044 36.5649C100.044 36.8693 100.044 37.478 99.7392 37.7823C99.7392 38.9997 100.652 40.2171 101.87 40.5214C103.391 40.8258 104.609 39.9127 105.217 38.6954C103.087 38.0867 102.174 37.478 102.783 35.3475C103.087 33.8258 104 33.2171 105.522 33.2171C105.826 32.3041 106.131 31.9997 107.044 31.6954C106.131 22.8693 99.4349 16.478 90.0001 17.0867C90.0001 17.391 90.0001 17.391 90.0001 17.6954C90.0001 18.3041 90.0001 18.6084 89.6957 18.9127V21.0432C90.0001 21.3475 90.0001 21.6519 90.0001 22.2606C90.0001 22.8693 90.0001 23.1736 89.6957 23.478V25.9127C90.0001 26.2171 90.0001 26.5214 90.0001 27.1301C90.0001 28.3475 89.087 28.9562 88.174 29.2606C87.261 28.9562 86.3479 28.3475 86.3479 27.1301C86.3479 26.5214 86.3479 26.2171 86.6523 25.9127V23.478C86.3479 23.1736 86.3479 22.8693 86.3479 22.2606C86.3479 21.6519 86.3479 21.3475 86.6523 21.0432V18.9127C86.0436 18.6084 85.7392 17.9997 85.7392 17.6954ZM55.6088 42.3475C56.2175 44.1736 55.6088 45.0867 53.7827 45.9997C54.6957 46.3041 55.6088 46.6084 56.8262 45.9997C58.0436 45.391 58.3479 44.478 58.3479 43.2606C57.4349 42.3475 57.4349 40.8258 58.3479 39.9127C58.6523 39.6084 58.9566 39.3041 59.261 39.3041C60.4783 38.9997 61.6957 39.6084 62.0001 41.1301C62.0001 41.4345 62.0001 41.4345 62.0001 41.7388C63.8262 44.1736 67.4783 42.9562 67.174 39.6084C65.0436 40.2171 63.8262 39.9127 63.2175 37.7823C62.9131 36.2606 63.2175 35.3475 64.7392 34.7388C64.7392 33.8258 64.7392 33.5214 65.0436 32.9127C63.8262 32.6084 63.2175 31.9997 63.2175 30.478C63.2175 28.9562 64.4349 28.3475 65.6523 28.0432C65.0436 27.4345 64.1305 26.8258 64.1305 25.9127C64.1305 25.9127 64.1305 25.6084 63.5218 25.6084C56.2175 29.2606 54.3914 32.6084 53.7827 40.5214C54.6957 40.8258 55.3044 41.4345 55.6088 42.3475ZM117.087 49.9562C108.261 45.6954 98.2175 43.5649 87.8696 43.5649C77.5218 43.5649 67.4783 45.9997 58.6523 49.9562C58.0436 50.2606 57.4349 49.9562 57.1305 49.3475C56.8262 48.7388 57.1305 48.4345 57.4349 47.8258C55.6088 48.4345 54.3914 48.4345 52.5653 47.2171C49.5218 49.0432 46.174 45.0867 48.6088 43.2606C47.3914 42.0432 47.3914 40.5214 48.9131 39.6084C48.6088 38.6954 48.3044 38.391 48.3044 37.7823C48.3044 36.2606 49.5218 35.6519 50.7392 35.3475C50.1305 35.0432 49.5218 34.4345 49.5218 33.5214C49.5218 31.9997 50.7392 31.391 51.9566 31.0867C51.6523 30.478 51.3479 30.1736 51.3479 29.5649C51.3479 28.3475 52.261 27.1301 53.7827 27.1301C54.087 27.1301 54.6957 27.1301 55.0001 27.4345C54.6957 26.8258 54.3914 26.5214 54.3914 25.9127C54.3914 24.6954 55.3044 23.478 56.8262 23.478C57.4349 23.478 57.7392 23.7823 58.3479 24.0867C58.3479 23.7823 58.3479 23.478 58.3479 23.1736C58.3479 21.9562 59.261 20.7388 60.7827 20.7388C61.3914 20.7388 62.0001 21.0432 62.3044 21.3475C62.3044 20.1301 63.2175 19.2171 64.4349 19.2171C65.3479 19.2171 65.9566 19.8258 66.5653 20.4345C67.174 19.8258 67.7827 19.5214 68.3914 19.5214C68.6957 19.5214 69.0001 19.5214 69.3044 19.8258C69.0001 19.2171 69.0001 18.9127 69.0001 18.6084C69.0001 17.391 69.9131 16.1736 71.4349 16.1736C72.0436 16.1736 72.6523 16.478 73.261 16.7823C73.261 16.478 73.261 16.1736 73.261 15.8693C73.261 14.6519 74.174 13.4345 75.6957 13.4345C76.3044 13.4345 76.9131 13.7388 77.5218 14.0432C77.8262 12.8258 78.4349 11.9127 79.9566 11.9127C80.8696 11.9127 81.174 12.2171 81.7827 12.8258C82.087 11.9127 83.0001 11.3041 83.9131 11.3041C84.2175 11.3041 84.5218 11.3041 84.8262 11.6084C85.7392 10.9997 86.3479 10.391 87.261 10.0867V7.65188H85.4349V6.43449H87.261V4.6084H88.7827V6.43449H90.6088V7.95622H88.7827V10.0867C89.6957 10.391 90.3044 10.6954 91.2175 11.6084C91.5218 11.6084 91.8262 11.3041 92.1305 11.3041C93.3479 11.3041 93.9566 11.9127 94.261 12.8258C94.8696 12.2171 95.4783 11.9127 96.087 11.9127C97.6088 11.9127 98.2175 12.8258 98.5218 14.0432C99.1305 13.7388 99.4349 13.4345 100.348 13.4345C101.565 13.4345 102.783 14.3475 102.783 15.8693C102.783 16.1736 102.783 16.478 102.783 16.7823C102.783 16.478 103.391 16.1736 104 16.1736C105.217 16.1736 106.435 17.0867 106.435 18.6084C106.435 19.2171 106.131 19.5214 106.131 19.8258C106.435 19.8258 106.739 19.5214 107.044 19.5214C107.957 19.5214 108.565 19.8258 108.87 20.4345C109.478 19.8258 110.087 19.2171 111 19.2171C112.522 19.2171 113.131 20.1301 113.435 21.3475C114.044 21.0432 114.348 20.7388 114.957 20.7388C116.174 20.7388 117.391 21.6519 117.391 23.1736C117.391 23.478 117.391 23.7823 117.391 24.0867C118 23.7823 118.304 23.478 118.913 23.478C120.131 23.478 121.348 24.391 121.348 25.9127C121.348 26.5214 121.044 26.8258 120.739 27.4345C121.044 27.1301 121.652 27.1301 121.957 27.1301C123.174 27.1301 124.391 28.0432 124.391 29.5649C124.391 30.1736 124.087 30.7823 123.783 31.0867C125 31.0867 126.217 31.9997 126.217 33.5214C126.217 34.7388 125.609 35.0432 124.696 35.6519C125.913 35.9562 127.131 36.5649 127.131 38.0867C127.131 38.6954 126.826 38.9997 126.522 39.3041C128.044 40.2171 128.044 41.7388 127.131 42.9562C128.348 44.1736 127.739 45.6954 126.522 46.6084C125.304 47.5214 124.087 47.8258 122.87 46.9127C121.348 48.1301 119.826 48.1301 118 47.5214L118.304 48.1301C119.217 49.0432 118.304 50.2606 117.087 49.9562ZM61.3914 52.0867L59.5653 51.478V51.1736C59.261 51.1736 59.261 51.1736 59.261 51.1736C58.6523 51.1736 58.6523 50.5649 58.9566 50.5649C67.7827 46.3041 77.5218 44.1736 87.8696 44.1736C98.2175 44.1736 107.957 46.6084 116.783 50.5649C117.087 50.5649 117.087 51.1736 116.478 51.1736H116.174V51.478L114.348 52.0867L114.957 54.2171L114.652 54.5214C115.565 54.8258 114.957 55.7388 114.652 55.4345C106.131 51.7823 97.3044 49.6519 87.8696 49.6519C78.4349 49.6519 69.3044 51.7823 61.3914 55.4345C61.087 55.4345 61.087 55.4345 60.7827 55.1301C60.7827 54.8258 60.7827 54.8258 61.087 54.5214C61.087 54.5214 61.3914 54.5214 61.3914 54.2171L61.087 53.9127C60.7827 54.2171 61.6957 52.0867 61.3914 52.0867ZM72.0436 50.5649L76.0001 47.8258L71.1305 47.2171L67.174 49.9562L72.0436 50.5649ZM111.913 52.9997C112.826 52.9997 113.435 52.391 113.435 51.478C113.435 50.5649 112.826 49.9562 111.913 49.9562C111 49.9562 110.391 50.5649 110.391 51.478C110.087 52.391 111 52.9997 111.913 52.9997ZM79.6523 49.0432C80.5653 49.0432 81.174 48.4345 81.174 47.5214C81.174 46.6084 80.5653 45.9997 79.6523 45.9997C78.7392 45.9997 78.1305 46.6084 78.1305 47.5214C78.1305 48.4345 78.7392 49.0432 79.6523 49.0432ZM63.8262 52.9997C64.7392 52.9997 65.3479 52.391 65.3479 51.478C65.3479 50.5649 64.7392 49.9562 63.8262 49.9562C62.9131 49.9562 62.3044 50.5649 62.3044 51.478C62.3044 52.391 62.9131 52.9997 63.8262 52.9997ZM96.087 49.0432C97.0001 49.0432 97.6088 48.4345 97.6088 47.5214C97.6088 46.6084 97.0001 45.9997 96.087 45.9997C95.174 45.9997 94.5653 46.6084 94.5653 47.5214C94.5653 48.4345 95.174 49.0432 96.087 49.0432ZM103.696 50.5649L108.565 49.9562L104.609 47.2171L99.7392 47.8258L103.696 50.5649ZM93.0436 46.9127L87.8696 44.7823L82.6957 46.6084L87.8696 48.4345L93.0436 46.9127ZM34.6088 111.739C34.6088 140.956 58.6523 164.695 87.8696 164.695C117.087 164.695 141.131 140.956 141.131 111.739C141.131 82.5214 117.087 58.7823 87.8696 58.7823C58.6523 58.7823 34.6088 82.5214 34.6088 111.739ZM146.913 111.739C146.913 144 120.435 170.478 87.8696 170.478C55.3044 170.478 28.8262 144 28.8262 111.739C28.8262 79.478 55.3044 52.9997 87.8696 52.9997C120.435 52.9997 146.913 79.478 146.913 111.739ZM79.9566 86.7823L87.5653 94.6954L94.8696 87.0867C92.4349 86.478 90.0001 85.8693 87.261 85.8693C84.8262 85.8693 82.3914 86.478 79.9566 86.7823ZM100.348 81.304L111.609 69.7388C126.217 77.9562 135.957 93.7823 135.957 111.434C135.957 123 131.696 133.652 124.696 142.174L119.522 137C125.304 129.695 129.261 122.695 129.261 111.13C129.261 98.9562 122.87 85.2606 112.522 78.2606L106.131 84.9562C109.478 87.6954 112.217 90.1301 114.652 93.7823L109.478 98.3475C107.348 94.6954 104.913 92.2606 101.261 89.8258L87.8696 104.13L73.8696 89.8258C66.5653 94.9997 62.3044 102 62.0001 111.13C61.6957 122.695 69.6088 131.217 80.261 134.869V110.826H97.0001V115.695H86.6523V122.087H96.6957V127.565H86.6523V135.782C94.261 136.087 102.174 131.826 106.739 126.652L111.609 131.521C105.217 138.826 96.087 142.478 86.3479 142.782V150.087H79.9566V141.869C65.3479 138.217 54.6957 125.434 55.0001 110.217C55.0001 99.8693 60.7827 91.0432 69.0001 84.9562L62.0001 77.9562C51.3479 86.7823 45.5653 97.1301 44.9566 110.826C44.6523 123 51.0436 132.739 55.0001 137L50.4349 141.869C43.1305 133.652 39.174 123.304 39.174 111.739C39.174 94.0867 48.9131 78.2606 63.5218 70.0432L75.087 81.9127C79.0436 80.391 83.3044 79.478 87.8696 79.478C92.1305 79.478 96.087 80.391 100.044 81.9127L100.348 81.304Z" fill="#FCBF00"/>
<path d="M148.739 111.739C148.739 144.913 121.348 172 87.8696 172C54.3913 172 27 144.913 27 111.739C27 78.5652 54.3913 51.1739 87.8696 51.1739C121.348 51.1739 148.739 78.5652 148.739 111.739ZM146.913 111.739C146.913 79.4783 120.435 53 87.8696 53C55.3043 53 28.8261 79.4783 28.8261 111.739C28.8261 144 55.3043 170.478 87.8696 170.478C120.435 170.478 146.913 144 146.913 111.739ZM36.4348 111.739C36.4348 139.739 59.5652 162.87 87.8696 162.87C116.174 162.87 139.304 139.739 139.304 111.739C139.304 83.4348 116.174 60.6087 87.8696 60.6087C59.5652 60.6087 36.4348 83.4348 36.4348 111.739ZM34.6087 111.739C34.6087 82.5217 58.3478 58.7826 87.8696 58.7826C117.087 58.7826 141.13 82.5217 141.13 111.739C141.13 140.957 117.087 164.696 87.8696 164.696C58.6522 164.696 34.6087 140.957 34.6087 111.739ZM93.9565 100.174L122.87 129.696C126.217 124.217 127.739 118.739 127.739 111.13C127.739 97.7391 120.13 85.8696 113.13 80.3913L108.87 84.9565C112.217 87.6957 114.957 90.7391 117.087 94.3913L109.174 101.391C107.348 97.7391 105.217 95 101.87 92.5652C101.565 92.2609 93.9565 100.174 93.9565 100.174ZM130.478 137.609C125.304 146.435 117.391 153.435 107.957 157.391L103.391 152.522L94.5652 143.696C92.7391 144 90.6087 144.304 88.4783 144.304V151.609H78.7391V143.087C63.8261 139.13 53.4783 125.13 53.7826 109.913C53.7826 107.478 54.087 105.043 54.6957 102.609L49.8261 97.7391C48.3043 101.696 47.3913 106.261 47.3913 110.826C47.087 120.261 51.3478 130.304 58.0435 136.696L50.7391 144C42.2174 134.87 37.6522 124.217 37.6522 111.435C37.6522 92.8696 48 76.4348 64.1304 67.6087L75.6957 79.7826C79.6522 78.2609 83.913 77.6522 87.8696 77.6522C92.1304 77.6522 96.087 78.5652 99.7391 79.7826L111.609 67.6087C128.043 76.7391 138.087 92.8696 138.087 111.739C138.087 121.174 135.348 129.696 130.478 137.609ZM78.7391 127.565L63.8261 112.348C64.1304 120.87 69.3043 128.783 78.7391 132.435V127.565ZM100.348 81.3043L100.043 81.913C96.087 80.3913 92.1304 79.4783 87.8696 79.4783C83.6087 79.4783 79.3478 80.3913 75.087 81.913L63.5217 70.0435C48.913 78.2609 39.1739 94.087 39.1739 111.739C39.1739 123.304 43.4348 133.652 50.4348 141.87L55 137.304C51.3478 133.043 44.9565 123.304 45.2609 111.13C45.8696 97.4348 51.3478 86.7826 62.3043 78.2609L69.3043 85.2609C61.087 91.3478 55.6087 99.8696 55.3043 110.522C55 125.739 65.6522 138.522 80.2609 142.174V150.087H86.6522V142.783C96.3913 142.783 105.522 139.13 111.913 131.522L107.043 126.652C102.174 132.13 94.2609 136.391 86.9565 135.783V127.565H97V122.087H86.9565V115.696H97V110.826H80.2609V134.87C69.3043 131.217 61.6957 123 61.6957 111.13C62 102 66.2609 95 73.5652 89.8261L87.5652 104.13L100.957 89.8261C104.304 92.2609 107.043 94.6957 109.174 98.3478L114.348 93.7826C111.913 90.1304 109.174 87.3913 105.826 84.9565L112.522 77.9565C122.87 84.9565 129.261 98.6522 129.261 110.826C129.261 122.391 125.304 129.391 119.522 136.696L124.696 141.87C131.696 133.652 135.957 123 135.957 111.13C135.957 93.1739 126.217 77.6522 111.609 69.4348L100.348 81.3043ZM79.9565 86.7826C82.3913 86.1739 84.8261 85.5652 87.2609 85.8696C90 85.8696 92.4348 86.4783 94.8696 87.087L87.8696 94.6956L79.9565 86.7826ZM83.6087 88L87.8696 92.2609L91.8261 88.3043C90.3043 88 89.087 88 87.5652 88C86.3478 87.6957 85.1304 87.6957 83.6087 88ZM114.652 52.3913L114.957 53.913V54.5217H115.261L116.478 53.913L116.174 52.3913V52.087L114.652 52.3913ZM117.087 49.9565C118 50.2609 118.913 49.3478 118.609 48.4348L118.304 47.5217C120.13 48.1304 121.348 48.1304 123.174 46.913C124.391 47.8261 125.609 47.5217 126.826 46.6087C128.043 45.6957 128.652 43.8696 127.435 42.9565C128.348 41.7391 128.348 40.2174 126.826 39.3043C127.13 39 127.435 38.3913 127.435 38.087C127.435 36.5652 126.217 35.9565 125 35.6522C125.609 35.0435 126.522 34.4348 126.522 33.5217C126.522 32 125.304 31.3913 124.087 31.087C124.087 30.4783 124.391 30.1739 124.391 29.2609C124.391 28.0435 123.478 26.8261 121.957 26.8261C121.652 26.8261 121.043 26.8261 120.739 27.1304C121.043 26.8261 121.348 26.5217 121.348 25.913C121.348 24.6957 120.435 23.4783 118.913 23.4783C118.304 23.4783 118 23.7826 117.391 24.087C117.391 23.7826 117.391 23.4783 117.391 23.1739C117.391 21.9565 116.478 20.7391 114.957 20.7391C114.348 20.7391 113.739 21.0435 113.435 21.3478C113.435 20.1304 112.522 19.2174 111.304 19.2174C110.391 19.2174 109.783 19.8261 109.174 20.4348C108.565 19.8261 107.957 19.5217 107.348 19.5217C107.043 19.5217 106.739 19.5217 106.435 19.8261C106.739 19.2174 106.739 18.913 106.739 18.6087C106.739 17.3913 105.826 16.1739 104.304 16.1739C103.696 16.1739 103.087 16.4783 102.478 16.7826C102.478 16.4783 102.478 16.1739 102.478 15.8696C102.478 14.6522 101.565 13.4348 100.043 13.4348C99.4348 13.4348 98.8261 13.7391 98.2174 14.0435C97.913 12.8261 97.3043 11.913 95.7826 11.913C94.8696 11.913 94.5652 12.2174 93.9565 12.8261C93.6522 11.913 92.7391 11.3043 91.8261 11.3043C91.5217 11.3043 91.2174 11.3043 90.913 11.6087C90.3043 10.6957 89.6957 10.3913 88.4783 10.087V7.65217H90.3043V6.13043H88.4783V4.6087H86.9565V6.43478H84.8261V7.95652H86.6522V10.087C85.7391 10.3913 85.1304 10.6957 84.2174 11.6087C83.913 11.6087 83.6087 11.3043 83.3043 11.3043C82.087 11.3043 81.4783 11.913 81.1739 12.8261C80.5652 12.2174 79.9565 11.913 79.3478 11.913C77.8261 11.913 77.2174 12.8261 76.913 14.0435C76.3043 13.7391 76 13.4348 75.087 13.4348C73.8696 13.4348 72.6522 14.3478 72.6522 15.8696C72.6522 16.1739 72.6522 16.4783 72.6522 16.7826C72.6522 16.4783 72.3478 16.1739 71.7391 16.1739C70.5217 16.1739 69.3043 17.087 69.3043 18.6087C69.3043 19.2174 69.6087 19.5217 69.6087 19.8261C69.3043 19.8261 69 19.5217 68.6957 19.5217C67.7826 19.5217 67.1739 19.8261 66.8696 20.4348C66.2609 19.8261 65.6522 19.2174 64.4348 19.2174C62.913 19.2174 62.3043 20.1304 62 21.3478C61.3913 21.0435 61.087 20.7391 60.1739 20.7391C58.9565 20.7391 57.7391 21.6522 57.7391 23.1739C57.7391 23.4783 57.7391 23.7826 57.7391 24.087C57.7391 23.7826 57.4348 23.4783 56.8261 23.4783C55.6087 23.4783 54.3913 24.6957 54.3913 25.913C54.3913 26.5217 54.6957 26.8261 54.6957 27.4348C54.3913 27.4348 54.087 27.1304 53.4783 27.1304C52.5652 27.1304 51.3478 28.0435 51.3478 29.5652C51.3478 30.1739 51.6522 30.7826 51.9565 31.087C50.4348 31.087 49.2174 31.6957 49.2174 33.5217C49.2174 34.7391 49.8261 35.0435 50.4348 35.6522C49.5217 35.9565 48.3043 36.5652 48.3043 38.087C48.3043 38.6957 48.6087 39 48.6087 39.3043C47.087 40.2174 47.087 41.7391 48 42.9565C45.8696 44.7826 49.2174 48.7391 51.9565 46.913C53.4783 48.1304 55 48.1304 56.8261 47.5217C56.5217 48.1304 56.2174 48.4348 56.5217 49.0435C56.8261 49.6522 57.4348 49.9565 58.0435 49.6522C66.8696 45.3913 76.913 43.2609 87.2609 43.2609C97.6087 43.2609 108.261 45.6957 117.087 49.9565ZM61.087 52.3913L59.8696 52.087H59.2609V52.3913L58.9565 53.913L60.1739 54.5217L60.4783 54.8261V54.2174C60.7826 53.913 61.087 52.3913 61.087 52.3913ZM60.1739 54.5217L58.3478 53.6087L58.6522 51.7826C58.0435 51.7826 57.7391 50.8696 58.0435 50.2609C57.4348 50.2609 56.5217 49.9565 56.2174 49.3478C56.2174 49.0435 55.913 48.7391 56.2174 48.4348C55 48.7391 53.4783 48.4348 52.2609 47.5217C49.2174 49.3478 45.5652 44.7826 47.3913 42.9565C46.4783 41.7391 46.7826 39.913 48 39C47.3913 37.4783 48 35.9565 49.2174 35.3478C49.2174 35.3478 49.2174 35.3478 49.5217 35.3478C48.913 34.7391 48.913 34.1304 48.913 33.5217C48.913 32.3043 49.8261 31.087 51.0435 30.7826C51.0435 30.1739 50.7391 29.8696 50.7391 29.2609C50.7391 27.7391 51.9565 26.5217 53.4783 26.5217H53.7826C53.4783 25 54.3913 23.4783 55.913 23.1739C56.2174 23.1739 56.5217 23.1739 56.5217 23.1739C56.8261 23.1739 57.1304 23.1739 57.4348 23.1739C57.4348 21.6522 58.6522 20.4348 60.1739 20.4348C60.7826 20.4348 61.087 20.4348 61.3913 20.7391C62 19.2174 63.5217 18.6087 65.0435 18.913C65.9565 19.2174 66.2609 19.5217 66.5652 19.8261C67.1739 19.5217 67.7826 19.2174 68.6957 19.2174H69C68.6957 17.6957 69.6087 16.1739 71.1304 15.8696C71.4348 15.8696 71.4348 15.8696 71.7391 15.8696C72.0435 15.8696 72.3478 15.8696 72.9565 16.1739C72.6522 14.3478 73.8696 13.1304 75.6957 13.1304C76.3043 13.1304 76.6087 13.1304 76.913 13.4348C77.2174 12.2174 78.4348 11.6087 79.6522 11.6087C80.2609 11.6087 80.8696 11.913 81.4783 12.2174C82.087 11.3043 83 11 83.913 11C84.2174 11 84.5217 11 84.5217 11C84.8261 10.6957 85.4348 10.087 86.0435 9.78261H86.3478V8.26087H84.5217V5.82609H86.3478V4H89.087V5.82609H90.913V8.26087H89.087V9.78261H89.3913C90 10.087 90.6087 10.3913 90.913 11C91.2174 11 91.5217 11 91.5217 11C92.4348 11 93.3478 11.6087 93.9565 12.2174C94.5652 11.913 95.1739 11.6087 95.7826 11.6087C97 11.6087 98.2174 12.2174 98.5217 13.4348C99.1304 13.1304 99.7391 13.1304 100.043 13.1304C101.565 13.1304 103.087 14.3478 103.087 15.8696C104.609 15.2609 106.13 15.8696 106.739 17.3913C106.739 17.6957 107.043 18 107.043 18.3043C107.043 18.6087 107.043 18.6087 107.043 18.913H107.348C107.957 18.913 108.87 19.2174 109.174 19.5217C109.783 18.913 110.391 18.6087 111.304 18.6087C112.522 18.6087 113.739 19.5217 114.043 20.4348C115.565 19.8261 117.087 20.1304 118 21.6522C118.304 21.9565 118.304 22.5652 118.304 22.8696C118.609 22.8696 118.913 22.8696 119.217 22.8696C120.739 22.8696 121.957 24.087 121.957 25.6087C121.957 25.913 121.957 26.2174 121.957 26.2174H122.261C123.783 26.2174 125 27.4348 125 28.9565C125 29.2609 125 29.8696 124.696 30.1739C125.913 30.4783 126.826 31.6957 126.826 32.913C126.826 33.5217 126.522 34.4348 126.217 34.7391C127.739 35.3478 128.348 36.8696 127.739 38.3913C127.739 38.3913 127.739 38.3913 127.739 38.6957C128.957 39.6087 129.261 41.1304 128.348 42.6522C129.565 43.8696 128.652 46 127.435 46.913C126.522 47.8261 125 48.1304 123.478 47.2174C122.261 48.1304 121.043 48.4348 119.522 48.1304C119.522 49.3478 118.609 50.2609 117.696 49.9565C118 50.5652 117.696 51.1739 117.087 51.4783L117.391 53.3043L115.261 54.5217C115.565 54.8261 115.565 55.1304 115.261 55.4348C114.957 56.0435 114.348 56.0435 114.043 56.0435C105.826 52.087 96.6957 50.2609 87.8696 50.2609C78.4348 50.2609 69.6087 52.3913 61.6957 56.0435C61.087 56.3478 60.4783 56.0435 60.4783 55.4348C60.1739 55.1304 60.1739 54.8261 60.1739 54.5217ZM61.3913 52.087L60.7826 54.2174L61.087 54.5217C61.087 54.5217 60.7826 54.5217 60.7826 54.8261C60.7826 54.8261 60.4783 55.1304 60.7826 55.4348C60.7826 55.7391 61.087 55.7391 61.3913 55.7391C69.6087 52.087 78.4348 49.9565 87.8696 49.9565C97.3043 49.9565 106.435 52.087 114.348 55.7391C114.652 56.0435 115.565 55.1304 114.348 54.8261L114.652 54.5217L114.043 52.3913L115.87 51.7826V51.4783H116.174C116.783 51.4783 116.783 50.8696 116.478 50.8696C107.652 46.6087 97.913 44.4783 87.5652 44.4783C77.2174 44.4783 67.4783 46.913 58.6522 50.8696C58.3478 50.8696 58.3478 51.4783 58.9565 51.4783H59.2609L59.5652 51.7826C59.8696 51.4783 61.3913 52.087 61.3913 52.087ZM104.913 26.8261C102.783 21.3478 97.3043 17.087 90.3043 17.3913C90.3043 18 90.3043 18.3043 90 18.6087V20.4348C90.6087 21.3478 90.6087 22.2609 90 23.1739V24.3913C94.8696 24.087 100.652 24.6957 104.913 26.8261ZM90 25.6087C90.6087 26.8261 90.6087 28.0435 89.3913 28.9565C90.3043 29.2609 90.913 29.8696 91.2174 31.087C93.0435 31.3913 93.3478 32.913 93.3478 34.1304C93.3478 35.9565 92.7391 37.1739 90.3043 37.4783C90 38.6957 90.6087 39.913 91.8261 40.5217C93.0435 41.1304 94.2609 40.2174 94.8696 39C95.1739 38.3913 95.1739 38.087 94.8696 37.4783C94.8696 37.1739 94.8696 36.8696 94.8696 36.8696C94.8696 35.3478 96.087 34.1304 97.913 34.1304C99.4348 34.1304 100.652 35.3478 100.652 36.8696C100.652 37.4783 100.652 37.7826 100.348 38.087C100.348 39 100.957 39.913 102.174 40.2174C103.087 40.5217 104 39.913 104.609 39.3043C102.174 38.6957 101.87 36.8696 102.478 35.3478C102.783 34.1304 103.696 32.913 105.522 32.913C105.217 32 105.522 31.6957 106.13 31.3913C105.826 30.1739 105.522 28.6522 105.217 27.4348C100.652 25 94.5652 24.3913 90 25C90 25.3043 90 25.6087 90 25.6087ZM85.7391 17.6957C85.7391 18.3043 85.7391 18.6087 86.0435 18.913V21.0435C85.7391 21.3478 85.7391 21.6522 85.7391 22.2609C85.7391 22.8696 85.7391 23.1739 86.0435 23.4783V25.6087C85.7391 25.913 85.7391 26.2174 85.7391 26.8261C85.7391 28.0435 86.6522 28.6522 87.5652 28.9565C88.4783 28.6522 89.3913 28.0435 89.3913 26.8261C89.3913 26.5217 89.3913 25.913 89.087 25.6087V23.1739C89.3913 22.8696 89.3913 22.5652 89.3913 21.9565C89.3913 21.3478 89.3913 21.0435 89.087 20.7391V18.913C89.3913 18.6087 89.3913 18.3043 89.3913 17.6957C89.3913 17.3913 89.3913 17.3913 89.3913 17.087C98.8261 16.4783 105.217 22.5652 106.13 31.6957C105.217 32 104.913 32.3043 104.609 33.2174C103.087 33.2174 102.174 33.8261 101.87 35.3478C101.261 37.4783 102.174 38.087 104.304 38.6957C103.696 39.913 102.478 41.1304 100.957 40.5217C99.7391 40.2174 98.8261 39 98.8261 37.7826C99.1304 37.4783 99.1304 37.1739 99.1304 36.5652C99.1304 35.3478 98.2174 34.1304 96.6957 34.1304C95.4783 34.1304 94.2609 35.0435 94.2609 36.5652C94.2609 36.8696 94.2609 37.1739 94.2609 37.1739C93.9565 38.3913 92.7391 39.3043 91.5217 39.3043C90 39.3043 88.7826 38.087 88.7826 36.5652C90.913 36.5652 92.1304 35.9565 92.1304 33.8261C92.1304 32.3043 91.5217 31.3913 90 31.087C89.6957 29.2609 88.7826 28.9565 86.9565 28.6522C85.4348 28.9565 84.2174 28.9565 83.913 31.087C82.3913 31.3913 81.7826 32.3043 81.7826 33.8261C81.7826 35.9565 83 36.5652 85.1304 36.5652C84.8261 38.087 83.913 39.3043 82.3913 39.3043C81.1739 39.3043 79.9565 38.3913 79.6522 37.1739C79.6522 36.8696 79.6522 36.5652 79.6522 36.5652C79.6522 35.3478 78.7391 34.1304 77.2174 34.1304C76 34.1304 74.7826 35.0435 74.7826 36.5652C74.7826 36.8696 74.7826 37.4783 75.087 37.7826C75.087 39 74.1739 40.2174 72.9565 40.5217C71.4348 40.8261 70.2174 39.913 69.6087 38.6957C71.7391 38.087 72.6522 37.4783 72.0435 35.3478C71.7391 33.8261 70.8261 33.2174 69.3043 33.2174C69 32.3043 68.6957 32 67.7826 31.6957C68.6957 22.8696 75.3913 16.4783 84.8261 17.087C85.7391 17.3913 85.7391 17.3913 85.7391 17.6957ZM70.5217 27.4348C69.913 28.6522 69.6087 29.8696 69.6087 31.3913C70.2174 31.6957 70.5217 32 70.8261 32.6087C72.6522 32.6087 73.2609 33.8261 73.8696 35.0435C74.1739 36.5652 73.8696 38.087 71.7391 39C71.7391 40.2174 72.6522 41.4348 73.8696 41.4348C75.087 41.4348 76.3043 40.5217 76.3043 39.3043C76.3043 39 76.3043 38.3913 76 38.087C75.6957 37.7826 75.6957 37.1739 75.6957 36.8696C75.6957 35.3478 76.913 34.1304 78.4348 34.1304C79.9565 34.1304 81.1739 35.3478 81.1739 36.8696C81.1739 37.1739 81.1739 37.4783 81.1739 37.4783C81.4783 38.6957 83 39.3043 84.2174 39C84.8261 38.6957 85.4348 38.087 85.7391 37.4783C83.3043 37.4783 82.6956 35.9565 82.6956 34.1304C82.6956 32.6087 83.3043 31.3913 84.8261 31.087C85.1304 29.8696 85.7391 29.2609 86.6522 28.9565C85.7391 28.0435 85.4348 26.8261 86.0435 25.6087V25.3043C81.1739 24.3913 75.087 25 70.5217 27.4348ZM85.1304 17.6957C78.1304 17.3913 72.6522 21.3478 70.5217 27.1304C75.087 24.6957 80.5652 24.3913 85.4348 25V23.7826C84.8261 22.8696 84.8261 21.9565 85.4348 21.0435V18.913C85.4348 18.6087 85.4348 18 85.1304 17.6957ZM114.043 43.5652C114.348 43.5652 114.652 43.8696 115.261 43.8696H115.87C116.174 44.7826 116.478 45.6957 117.087 46.3043L116.783 46.6087C115.261 46 113.435 45.087 111.609 44.4783V43.8696C112.522 44.4783 113.435 44.1739 114.043 43.5652ZM114.348 44.1739C113.739 44.4783 113.435 44.7826 112.826 44.7826C114.043 45.087 114.957 45.6957 116.174 46C115.87 45.3913 115.565 45.087 115.565 44.4783H115.261C114.652 44.4783 114.652 44.1739 114.348 44.1739ZM87.5652 37.1739H88.1739C88.4783 38.6957 89.3913 39.913 90.6087 40.5217V41.1304C89.6957 41.1304 88.7826 41.1304 87.8696 41.1304C86.9565 41.1304 86.0435 41.1304 85.1304 41.1304V40.5217C86.3478 39.913 87.2609 38.6957 87.5652 37.1739ZM87.8696 38.3913C87.5652 39.3043 86.9565 39.913 86.3478 40.5217C86.9565 40.5217 87.5652 40.5217 87.8696 40.5217C88.1739 40.5217 89.087 40.5217 89.3913 40.5217C88.7826 39.913 88.1739 39.3043 87.8696 38.3913ZM58.9565 46.913L58.6522 46.6087C59.2609 46 59.8696 45.087 59.8696 44.1739C60.4783 44.1739 60.7826 43.8696 61.3913 43.5652C62.3043 44.1739 62.913 44.4783 64.1304 44.4783V45.087C62.3043 45.6957 60.7826 46.3043 58.9565 46.913ZM59.5652 46C60.7826 45.6957 61.6957 45.087 62.913 44.7826C62.3043 44.4783 61.6957 44.4783 61.3913 44.1739C61.087 44.4783 60.7826 44.4783 60.4783 44.4783H60.1739C60.1739 45.087 59.8696 45.6957 59.5652 46ZM72.6522 42.0435V42.6522C71.1304 42.9565 69.3043 43.5652 67.7826 43.8696L67.4783 43.5652C68.6957 42.6522 69.3043 41.1304 69 39.913H69.6087C69.913 40.8261 71.1304 41.7391 72.6522 42.0435ZM71.4348 42.3478C70.5217 42.0435 69.913 41.4348 69.3043 40.5217C69.3043 41.4348 69 42.3478 68.3913 42.9565C69.3043 42.6522 70.5217 42.6522 71.4348 42.3478ZM76 42.0435L75.6957 41.4348C76.6087 40.8261 77.2174 39.913 77.8261 38.6957H78.1304C78.4348 38.6957 78.7391 38.6957 79.0435 38.3913C79.6522 39.3043 80.5652 39.913 81.7826 40.5217V41.1304C79.6522 41.4348 77.8261 41.7391 76 42.0435ZM78.4348 39.3043C78.1304 39.913 77.8261 40.5217 77.2174 41.1304C78.4348 40.8261 79.6522 40.8261 80.8696 40.8261C80.2609 40.5217 79.6522 39.913 79.3478 39.3043C78.7391 39.3043 78.4348 39.3043 78.4348 39.3043ZM93.9565 41.1304V40.5217C95.1739 40.2174 95.7826 39.6087 96.6957 38.3913C97 38.3913 97.3043 38.6957 97.6087 38.6957H97.913C98.2174 39.913 98.8261 40.5217 100.043 41.4348L99.7391 42.0435C97.6087 41.7391 95.7826 41.4348 93.9565 41.1304ZM97.3043 39.3043C97 39.3043 97 39.3043 96.6957 39.3043C96.3913 39.913 95.7826 40.5217 95.1739 40.8261C96.3913 40.8261 97.6087 41.1304 98.8261 41.1304C98.2174 40.8261 97.6087 40.2174 97.3043 39.3043C97.3043 39.3043 97.3043 39.6087 97.3043 39.3043ZM108.261 43.2609L107.957 43.5652C106.435 42.9565 104.609 42.6522 103.087 42.3478V41.7391C104.609 41.4348 105.826 40.5217 106.13 39H106.739C106.739 41.1304 107.348 42.3478 108.261 43.2609ZM107.348 42.9565C106.739 42.3478 106.435 41.4348 106.435 40.5217C105.826 41.1304 105.217 41.7391 104.304 42.3478C105.217 42.3478 106.13 42.6522 107.348 42.9565ZM107.957 33.8261C106.739 33.5217 105.522 34.1304 105.217 35.3478C104.913 36.5652 105.522 37.7826 106.739 38.087C107.957 38.3913 109.174 37.7826 109.478 36.5652C110.087 35.3478 109.174 34.1304 107.957 33.8261ZM108.261 33.2174C109.783 33.5217 110.696 35.0435 110.087 36.5652C109.783 38.087 108.261 39 106.739 38.3913C105.217 38.087 104.609 36.5652 104.913 35.0435C105.217 33.8261 106.739 32.913 108.261 33.2174ZM110.087 29.2609C109.478 29.2609 108.87 29.8696 108.87 30.4783C108.87 31.087 109.478 31.6957 110.087 31.6957C110.696 31.6957 111.304 31.087 111.304 30.4783C111.304 29.8696 110.696 29.2609 110.087 29.2609ZM110.087 28.9565C111 28.9565 111.609 29.5652 111.609 30.4783C111.609 31.3913 111 32 110.087 32C109.174 32 108.565 31.3913 108.565 30.4783C108.565 29.5652 109.174 28.9565 110.087 28.9565ZM109.174 24.6957C108.565 24.6957 107.957 25.3043 107.957 25.913C107.957 26.5217 108.565 27.1304 109.174 27.1304C109.783 27.1304 110.391 26.5217 110.391 25.913C110.391 25.3043 109.783 24.6957 109.174 24.6957ZM109.174 24.3913C110.087 24.3913 110.696 25 110.696 25.913C110.696 26.8261 110.087 27.7391 109.174 27.7391C108.261 27.7391 107.652 27.1304 107.652 26.2174C107.652 25.3043 108.261 24.3913 109.174 24.3913ZM125 36.5652C124.391 36.5652 123.783 37.1739 123.783 37.7826C123.783 38.3913 124.391 39 125 39C125.609 39 126.217 38.3913 126.217 37.7826C126.217 37.1739 125.609 36.5652 125 36.5652ZM125 36.2609C125.913 36.2609 126.522 36.8696 126.522 37.7826C126.522 38.6957 125.913 39.3043 125 39.3043C124.087 39.3043 123.478 38.6957 123.478 37.7826C123.478 36.8696 124.087 36.2609 125 36.2609ZM123.783 32C123.174 32 122.565 32.6087 122.565 33.2174C122.565 33.8261 123.174 34.4348 123.783 34.4348C124.391 34.4348 125 33.8261 125 33.2174C125 32.6087 124.391 32 123.783 32ZM123.783 31.6957C124.696 31.6957 125.304 32.3043 125.304 33.2174C125.304 34.1304 124.696 34.7391 123.783 34.7391C122.87 34.7391 122.261 34.1304 122.261 33.2174C122.261 32.3043 122.87 31.6957 123.783 31.6957ZM121.957 28.0435C121.348 28.0435 120.739 28.6522 120.739 29.2609C120.739 29.8696 121.348 30.4783 121.957 30.4783C122.565 30.4783 123.174 29.8696 123.174 29.2609C123.174 28.6522 122.565 28.0435 121.957 28.0435ZM121.957 27.7391C122.87 27.7391 123.478 28.3478 123.478 29.2609C123.478 30.1739 122.87 30.7826 121.957 30.7826C121.043 30.7826 120.435 30.1739 120.435 29.2609C120.435 28.3478 121.043 27.7391 121.957 27.7391ZM118.913 24.6957C118.304 24.6957 117.696 25.3043 117.696 25.913C117.696 26.5217 118.304 27.1304 118.913 27.1304C119.522 27.1304 120.13 26.5217 120.13 25.913C120.13 25.3043 119.522 24.6957 118.913 24.6957ZM118.913 24.3913C119.826 24.3913 120.435 25 120.435 25.913C120.435 26.8261 119.826 27.4348 118.913 27.4348C118 27.4348 117.391 26.8261 117.391 25.913C117.087 25 118 24.3913 118.913 24.3913ZM115.261 21.9565C114.652 21.9565 114.043 22.5652 114.043 23.1739C114.043 23.7826 114.652 24.3913 115.261 24.3913C115.87 24.3913 116.478 23.7826 116.478 23.1739C116.478 22.5652 115.87 21.9565 115.261 21.9565ZM115.261 21.6522C116.174 21.6522 116.783 22.2609 116.783 23.1739C116.783 24.087 116.174 24.6957 115.261 24.6957C114.348 24.6957 113.739 24.087 113.739 23.1739C113.739 22.2609 114.348 21.6522 115.261 21.6522ZM111 20.4348C110.391 20.4348 109.783 21.0435 109.783 21.6522C109.783 22.2609 110.391 22.8696 111 22.8696C111.609 22.8696 112.217 22.2609 112.217 21.6522C112.217 21.0435 111.913 20.4348 111 20.4348ZM111 20.1304C111.913 20.1304 112.522 20.7391 112.522 21.6522C112.522 22.5652 112.217 23.1739 111 23.1739C110.087 23.1739 109.478 22.5652 109.478 21.6522C109.478 20.7391 110.087 20.1304 111 20.1304ZM107.043 20.7391C106.435 20.7391 105.826 21.3478 105.826 21.9565C105.826 22.5652 106.435 23.1739 107.043 23.1739C107.652 23.1739 108.261 22.5652 108.261 21.9565C108.261 21.3478 107.652 20.7391 107.043 20.7391ZM107.043 20.4348C107.957 20.4348 108.565 21.0435 108.565 21.9565C108.565 22.8696 107.957 23.4783 107.043 23.4783C106.13 23.4783 105.522 22.8696 105.522 21.9565C105.522 21.0435 106.13 20.4348 107.043 20.4348ZM104 17.3913C103.391 17.3913 102.783 18 102.783 18.6087C102.783 19.2174 103.391 19.8261 104 19.8261C104.609 19.8261 105.217 19.2174 105.217 18.6087C105.217 18 104.609 17.3913 104 17.3913ZM104 16.7826C104.913 16.7826 105.522 17.3913 105.522 18.3043C105.522 19.2174 104.913 19.8261 104 19.8261C103.087 19.8261 102.478 19.2174 102.478 18.3043C102.478 17.6957 103.087 16.7826 104 16.7826ZM100.043 14.6522C99.4348 14.6522 98.8261 15.2609 98.8261 15.8696C98.8261 16.4783 99.4348 17.087 100.043 17.087C100.652 17.087 101.261 16.4783 101.261 15.8696C101.565 15.2609 100.957 14.6522 100.043 14.6522ZM100.043 14.3478C100.957 14.3478 101.565 14.9565 101.565 15.8696C101.565 16.7826 100.957 17.6957 100.043 17.6957C99.1304 17.6957 98.5217 17.087 98.5217 16.1739C98.5217 15.2609 99.1304 14.3478 100.043 14.3478ZM96.087 13.1304C95.4783 13.1304 94.8696 13.7391 94.8696 14.3478C94.8696 14.9565 95.4783 15.5652 96.087 15.5652C96.6957 15.5652 97.3043 14.9565 97.3043 14.3478C97.3043 13.7391 96.6957 13.1304 96.087 13.1304ZM96.087 12.8261C97 12.8261 97.6087 13.4348 97.6087 14.3478C97.6087 15.2609 97 16.1739 96.087 16.1739C95.1739 16.1739 94.5652 15.5652 94.5652 14.6522C94.5652 13.7391 95.1739 12.8261 96.087 12.8261ZM91.8261 12.5217C91.2174 12.5217 90.6087 13.1304 90.6087 13.7391C90.6087 14.3478 91.2174 14.9565 91.8261 14.9565C92.4348 14.9565 93.0435 14.3478 93.0435 13.7391C93.0435 13.1304 92.4348 12.5217 91.8261 12.5217ZM91.8261 12.2174C92.7391 12.2174 93.3478 12.8261 93.3478 13.7391C93.3478 14.6522 92.7391 15.2609 91.8261 15.2609C90.913 15.2609 90.3043 14.6522 90.3043 13.7391C90.3043 12.8261 90.913 12.2174 91.8261 12.2174ZM52.2609 46C53.4783 45.3913 53.7826 43.8696 53.1739 42.9565C52.5652 41.7391 51.0435 41.4348 50.1304 42.0435C48.913 42.6522 48.6087 43.8696 49.2174 45.087C49.8261 46 51.3478 46.3043 52.2609 46ZM52.5652 46.3043C51.3478 46.913 49.5217 46.6087 48.913 45.3913C48.3043 44.1739 48.6087 42.6522 49.8261 41.7391C51.0435 41.1304 52.8696 41.4348 53.4783 42.6522C54.3913 43.8696 53.7826 45.3913 52.5652 46.3043ZM68.6957 38.087C69.913 37.7826 70.8261 36.5652 70.2174 35.3478C69.913 34.1304 68.6957 33.5217 67.4783 33.8261C66.2609 34.1304 65.6522 35.3478 65.9565 36.5652C66.2609 37.7826 67.4783 38.3913 68.6957 38.087ZM69 38.3913C67.4783 38.6957 66.2609 37.7826 65.6522 36.5652C65.3478 35.0435 66.2609 33.8261 67.4783 33.2174C69 32.913 70.5217 33.8261 70.8261 35.0435C71.1304 36.2609 70.2174 38.087 69 38.3913ZM87.8696 35.6522C89.087 35.6522 90.3043 34.7391 90.3043 33.2174C90.3043 31.6957 89.087 31.087 87.8696 31.087C86.6522 31.087 85.4348 32 85.4348 33.5217C85.4348 35.0435 86.6522 35.6522 87.8696 35.6522ZM87.8696 36.2609C86.3478 36.2609 85.1304 35.0435 85.1304 33.5217C85.1304 32 86.3478 30.7826 87.8696 30.7826C89.3913 30.7826 90.6087 32 90.6087 33.5217C90.6087 35.0435 89.3913 36.2609 87.8696 36.2609ZM65.6522 31.6957C66.2609 31.6957 66.8696 31.087 66.8696 30.4783C66.8696 29.8696 66.2609 29.2609 65.6522 29.2609C65.0435 29.2609 64.4348 29.8696 64.4348 30.4783C64.1304 31.087 64.7391 31.6957 65.6522 31.6957ZM65.6522 32C64.7391 32 64.1304 31.3913 64.1304 30.4783C64.1304 29.5652 64.7391 28.9565 65.6522 28.9565C66.5652 28.9565 67.1739 29.5652 67.1739 30.4783C67.1739 31.3913 66.5652 32 65.6522 32ZM66.5652 27.1304C67.1739 27.1304 67.7826 26.5217 67.7826 25.913C67.7826 25.3043 67.1739 24.6957 66.5652 24.6957C65.9565 24.6957 65.3478 25.3043 65.3478 25.913C65.3478 26.5217 65.9565 27.1304 66.5652 27.1304ZM66.5652 27.7391C65.6522 27.7391 65.0435 27.1304 65.0435 26.2174C65.0435 25.3043 65.6522 24.6957 66.5652 24.6957C67.4783 24.6957 68.087 25.3043 68.087 26.2174C68.087 27.1304 67.4783 27.7391 66.5652 27.7391ZM50.7391 39.3043C51.3478 39.3043 51.9565 38.6957 51.9565 38.087C51.9565 37.4783 51.3478 36.8696 50.7391 36.8696C50.1304 36.8696 49.5217 37.4783 49.5217 38.087C49.5217 38.6957 50.1304 39.3043 50.7391 39.3043ZM50.7391 39.6087C49.8261 39.6087 49.2174 39 49.2174 38.087C49.2174 37.1739 49.8261 36.5652 50.7391 36.5652C51.6522 36.5652 52.2609 37.1739 52.2609 38.087C52.5652 38.6957 51.6522 39.6087 50.7391 39.6087ZM51.9565 34.7391C52.5652 34.7391 53.1739 34.1304 53.1739 33.5217C53.1739 32.913 52.5652 32.3043 51.9565 32.3043C51.3478 32.3043 50.7391 32.913 50.7391 33.5217C50.4348 34.1304 51.0435 34.7391 51.9565 34.7391ZM51.9565 35.0435C51.0435 35.0435 50.4348 34.4348 50.4348 33.5217C50.4348 32.6087 51.0435 32 51.9565 32C52.8696 32 53.4783 32.6087 53.4783 33.5217C53.4783 34.4348 52.8696 35.0435 51.9565 35.0435ZM53.7826 30.7826C54.3913 30.7826 55 30.1739 55 29.5652C55 28.9565 54.3913 28.0435 53.7826 28.0435C53.1739 28.0435 52.5652 28.6522 52.5652 29.2609C52.5652 29.8696 52.8696 30.7826 53.7826 30.7826ZM53.7826 31.087C52.8696 31.087 52.2609 30.4783 52.2609 29.5652C52.2609 28.6522 52.8696 28.0435 53.7826 28.0435C54.6957 28.0435 55.3043 28.6522 55.3043 29.5652C55.3043 30.4783 54.6957 31.087 53.7826 31.087ZM56.8261 27.1304C57.4348 27.1304 58.0435 26.5217 58.0435 25.913C58.0435 25.3043 57.4348 24.6957 56.8261 24.6957C56.2174 24.6957 55.6087 25 55.6087 25.913C55.6087 26.8261 55.913 27.1304 56.8261 27.1304ZM56.8261 27.4348C55.913 27.4348 55.3043 26.8261 55.3043 25.913C55.3043 25 55.913 24.3913 56.8261 24.3913C57.7391 24.3913 58.3478 25 58.3478 25.913C58.3478 26.8261 57.7391 27.4348 56.8261 27.4348ZM60.4783 24.3913C61.087 24.3913 61.6957 23.7826 61.6957 23.1739C61.6957 22.5652 61.087 21.9565 60.4783 21.9565C59.8696 21.9565 59.2609 22.5652 59.2609 23.1739C59.2609 23.7826 59.8696 24.3913 60.4783 24.3913ZM60.4783 24.6957C59.5652 24.6957 58.9565 24.087 58.9565 23.1739C58.9565 22.2609 59.5652 21.6522 60.4783 21.6522C61.3913 21.6522 62 22.2609 62 23.1739C62 24.087 61.3913 24.6957 60.4783 24.6957ZM64.4348 22.8696C65.0435 22.8696 65.6522 22.2609 65.6522 21.6522C65.6522 21.0435 65.0435 20.4348 64.4348 20.4348C63.8261 20.4348 63.2174 21.0435 63.2174 21.6522C63.2174 22.2609 63.8261 22.8696 64.4348 22.8696ZM64.4348 23.1739C63.5217 23.1739 62.913 22.5652 62.913 21.6522C62.913 20.7391 63.5217 20.1304 64.4348 20.1304C65.3478 20.1304 65.9565 20.7391 65.9565 21.6522C66.2609 22.5652 65.3478 23.1739 64.4348 23.1739ZM68.6957 23.1739C69.3043 23.1739 69.913 22.5652 69.913 21.9565C69.913 21.3478 69.3043 20.7391 68.6957 20.7391C68.087 20.7391 67.4783 21.3478 67.4783 21.9565C67.4783 22.5652 67.7826 23.1739 68.6957 23.1739ZM68.6957 23.4783C67.7826 23.4783 67.1739 22.8696 67.1739 21.9565C67.1739 21.0435 67.7826 20.4348 68.6957 20.4348C69.6087 20.4348 70.2174 21.0435 70.2174 21.9565C70.2174 22.8696 69.6087 23.4783 68.6957 23.4783ZM71.7391 19.8261C72.3478 19.8261 72.9565 19.2174 72.9565 18.6087C72.9565 18 72.3478 17.3913 71.7391 17.3913C71.1304 17.3913 70.5217 18 70.5217 18.6087C70.2174 19.2174 70.8261 19.8261 71.7391 19.8261ZM71.7391 20.1304C70.8261 20.1304 70.2174 19.5217 70.2174 18.6087C70.2174 17.6957 70.8261 17.087 71.7391 17.087C72.6522 17.087 73.2609 17.6957 73.2609 18.6087C73.2609 19.5217 72.6522 20.1304 71.7391 20.1304ZM75.3913 17.087C76 17.087 76.6087 16.4783 76.6087 15.8696C76.6087 15.2609 76 14.6522 75.3913 14.6522C74.7826 14.6522 74.1739 15.2609 74.1739 15.8696C74.1739 16.4783 74.7826 17.087 75.3913 17.087ZM75.3913 17.6957C74.4783 17.6957 73.8696 17.087 73.8696 16.1739C73.8696 15.2609 74.4783 14.6522 75.3913 14.6522C76.3043 14.6522 76.913 15.2609 76.913 16.1739C76.913 17.087 76.3043 17.6957 75.3913 17.6957ZM79.6522 15.5652C80.2609 15.5652 80.8696 14.9565 80.8696 14.3478C80.8696 13.7391 80.2609 13.1304 79.6522 13.1304C79.0435 13.1304 78.4348 13.7391 78.4348 14.3478C78.4348 14.9565 79.0435 15.5652 79.6522 15.5652ZM79.6522 16.1739C78.7391 16.1739 78.1304 15.5652 78.1304 14.6522C78.1304 13.7391 78.7391 13.1304 79.6522 13.1304C80.5652 13.1304 81.1739 13.7391 81.1739 14.6522C81.1739 15.5652 80.5652 16.1739 79.6522 16.1739ZM87.8696 28.0435C88.4783 28.0435 89.087 27.4348 89.087 26.8261C89.087 26.2174 88.4783 25.6087 87.8696 25.6087C87.2609 25.6087 86.6522 26.2174 86.6522 26.8261C86.6522 27.4348 87.2609 28.0435 87.8696 28.0435ZM87.8696 28.3478C86.9565 28.3478 86.3478 27.7391 86.3478 26.8261C86.3478 25.913 86.9565 25.3043 87.8696 25.3043C88.7826 25.3043 89.3913 25.913 89.3913 26.8261C89.3913 27.7391 88.7826 28.3478 87.8696 28.3478ZM87.8696 23.4783C88.4783 23.4783 89.087 22.8696 89.087 22.2609C89.087 21.6522 88.4783 21.0435 87.8696 21.0435C87.2609 21.0435 86.6522 21.6522 86.6522 22.2609C86.6522 22.8696 87.2609 23.4783 87.8696 23.4783ZM87.8696 23.7826C86.9565 23.7826 86.3478 23.1739 86.3478 22.2609C86.3478 21.3478 86.9565 20.7391 87.8696 20.7391C88.7826 20.7391 89.3913 21.3478 89.3913 22.2609C89.3913 23.1739 88.7826 23.7826 87.8696 23.7826ZM87.8696 18.913C88.4783 18.913 89.087 18.3043 89.087 17.6957C89.087 17.087 88.4783 16.4783 87.8696 16.4783C87.2609 16.4783 86.6522 17.087 86.6522 17.6957C86.6522 18.3043 87.2609 18.913 87.8696 18.913ZM87.8696 19.2174C86.9565 19.2174 86.3478 18.6087 86.3478 17.6957C86.3478 16.7826 86.9565 16.1739 87.8696 16.1739C88.7826 16.1739 89.3913 16.7826 89.3913 17.6957C89.3913 18.6087 88.7826 19.2174 87.8696 19.2174ZM83.913 14.9565C84.5217 14.9565 85.1304 14.3478 85.1304 13.7391C85.1304 13.1304 84.5217 12.5217 83.913 12.5217C83.3043 12.5217 82.3913 13.1304 82.3913 13.7391C82.3913 14.3478 83 14.9565 83.913 14.9565ZM83.913 15.2609C83 15.2609 82.3913 14.6522 82.3913 13.7391C82.3913 12.8261 83 12.2174 83.913 12.2174C84.8261 12.2174 85.4348 12.8261 85.4348 13.7391C85.4348 14.6522 84.8261 15.2609 83.913 15.2609ZM125.609 41.7391C124.391 41.1304 123.174 41.4348 122.565 42.6522C121.957 43.8696 122.261 45.087 123.478 45.6957C124.696 46.3043 125.913 46 126.522 44.7826C127.13 43.8696 126.522 42.3478 125.609 41.7391ZM125.609 41.4348C126.826 42.0435 127.435 43.8696 126.522 45.087C125.913 46.3043 124.087 46.913 122.87 46C121.652 45.3913 121.043 43.8696 121.957 42.3478C122.87 41.1304 124.391 40.8261 125.609 41.4348ZM55.6087 42.3478C55.3043 41.4348 54.6957 40.8261 53.7826 40.5217C54.3913 32.6087 56.5217 29.2609 63.5217 25.6087C64.1304 25.913 64.1304 25.913 64.1304 25.913C64.1304 27.1304 64.7391 27.4348 65.3478 28.0435C64.1304 28.3478 62.913 28.9565 62.913 30.4783C62.913 31.6957 63.8261 32.3043 64.7391 32.913C64.4348 33.5217 64.4348 33.8261 64.4348 34.7391C62.913 35.3478 62.6087 36.2609 62.913 37.7826C63.5217 39.913 64.7391 40.2174 66.8696 39.6087C67.1739 42.9565 63.5217 44.1739 61.6957 41.7391C61.6957 41.4348 61.6957 41.4348 61.6957 41.1304C61.3913 39.913 60.1739 39 58.9565 39.3043C57.7391 39.6087 56.8261 40.8261 57.1304 42.0435C57.1304 42.3478 57.4348 42.6522 57.7391 42.9565C57.7391 44.1739 57.4348 45.087 56.2174 45.6957C55 46.3043 54.3913 46 53.1739 45.6957C55.6087 45.087 56.2174 44.4783 55.6087 42.3478ZM55.6087 33.8261C55 35.6522 54.3913 37.4783 54.3913 40.2174C55.3043 40.5217 55.913 41.4348 56.2174 42.3478C56.8261 43.5652 56.8261 45.087 55.3043 46C55.6087 46 56.2174 46 56.5217 45.6957C57.4348 45.3913 57.7391 44.4783 57.7391 43.5652C57.4348 43.2609 57.1304 42.9565 57.1304 42.3478C56.8261 40.8261 57.7391 39.3043 59.2609 39C60.7826 38.6957 62.3043 39.6087 62.6087 41.1304V41.7391C63.8261 43.2609 66.5652 42.3478 66.5652 40.5217C64.1304 41.1304 63.2174 39.913 62.6087 38.087C62.3043 36.8696 62.3043 35.3478 63.8261 34.4348C63.8261 34.1304 63.8261 33.5217 64.1304 33.2174C63.2174 32.913 62.6087 32 62.3043 31.087C61.087 31.3913 59.2609 31.6957 58.0435 32.3043C57.4348 32.6087 56.5217 33.2174 55.6087 33.8261ZM63.8261 26.2174C59.8696 28.3478 57.4348 30.1739 55.913 33.2174C56.5217 32.6087 57.4348 32.3043 58.3478 32C59.5652 31.3913 61.087 31.087 62.6087 30.7826V30.4783C62.6087 29.2609 63.2174 28.3478 64.4348 27.7391C64.1304 27.4348 63.8261 26.8261 63.8261 26.2174ZM118.913 46C117.696 45.3913 117.391 44.4783 117.391 43.2609C117.696 42.9565 117.696 42.6522 118 42.3478C118.304 41.1304 117.696 39.913 116.478 39.6087C115.261 39.3043 114.043 39.913 113.739 41.4348C113.739 41.7391 113.739 41.7391 113.739 42.0435C111.913 44.4783 108.261 43.2609 108.565 39.913C110.696 40.5217 111.913 40.2174 112.522 38.087C112.826 36.5652 112.522 35.6522 111 35.0435C111 34.1304 111 33.8261 110.696 33.2174C111.913 32.913 112.522 32.3043 112.522 30.7826C112.522 29.2609 111.304 28.6522 110.087 28.3478C110.696 27.7391 111.609 27.1304 111.609 26.2174V25.913L112.217 25.6087C119.217 29.2609 121.652 32.913 122.261 40.5217C121.348 40.8261 120.739 41.4348 120.435 42.3478C119.826 44.1739 120.435 45.087 122.261 46C120.739 46.3043 120.13 46.6087 118.913 46ZM112.826 31.087C112.522 32 111.913 32.913 111 33.2174C111 33.5217 111.304 33.8261 111.304 34.4348C112.826 35.3478 113.13 36.5652 112.826 38.087C112.522 39.6087 111.304 40.8261 108.87 40.5217C108.87 42.6522 111.609 43.2609 112.826 41.7391C112.826 41.4348 112.826 41.4348 112.826 41.1304C113.13 39.6087 114.652 38.6957 116.174 39C117.696 39.3043 118.609 40.8261 118.304 42.3478C118.304 42.6522 118 43.2609 117.696 43.5652C117.696 44.7826 118.609 46 120.13 46C118.609 45.087 118.609 43.5652 119.217 42.3478C119.522 41.4348 120.13 40.5217 120.739 40.2174C120.435 37.7826 120.13 35.6522 119.522 33.8261C118.913 33.2174 118 32.6087 116.783 32C115.87 31.6957 114.348 31.3913 112.826 31.087ZM111.913 25.913C111.913 26.5217 111.609 27.1304 111.304 27.7391C112.217 28.3478 113.13 29.2609 113.13 30.4783V30.7826C114.652 31.087 116.174 31.3913 117.391 32C118.304 32.3043 119.217 32.913 119.826 33.2174C118.304 30.1739 115.87 28.0435 111.913 25.913ZM103.696 50.5652L99.7391 47.8261L104.609 47.2174L108.565 49.9565L103.696 50.5652ZM96.087 49.0435C95.1739 49.0435 94.5652 48.4348 94.5652 47.5217C94.5652 46.6087 95.1739 46 96.087 46C97 46 97.6087 46.6087 97.6087 47.5217C97.6087 48.1304 97 49.0435 96.087 49.0435ZM96.087 48.4348C96.6957 48.4348 97.3043 47.8261 97.3043 47.2174C97.3043 46.6087 96.6957 46 96.087 46C95.4783 46 94.8696 46.6087 94.8696 47.2174C94.8696 47.8261 95.4783 48.4348 96.087 48.4348ZM63.8261 52.6957C64.4348 52.6957 65.0435 52.087 65.0435 51.4783C65.0435 50.8696 64.4348 50.2609 63.8261 50.2609C63.2174 50.2609 62.6087 50.8696 62.6087 51.4783C62.6087 52.087 63.2174 52.6957 63.8261 52.6957ZM63.8261 53C62.913 53 62.3043 52.3913 62.3043 51.4783C62.3043 50.5652 62.913 49.9565 63.8261 49.9565C64.7391 49.9565 65.3478 50.5652 65.3478 51.4783C65.3478 52.3913 64.7391 53 63.8261 53ZM79.6522 48.4348C80.2609 48.4348 80.8696 47.8261 80.8696 47.2174C80.8696 46.6087 80.2609 46 79.6522 46C79.0435 46 78.4348 46.6087 78.4348 47.2174C78.4348 47.8261 79.0435 48.4348 79.6522 48.4348ZM79.6522 49.0435C78.7391 49.0435 78.1304 48.4348 78.1304 47.5217C78.1304 46.6087 78.7391 46 79.6522 46C80.5652 46 81.1739 46.6087 81.1739 47.5217C81.1739 48.4348 80.5652 49.0435 79.6522 49.0435ZM111.913 52.6957C112.522 52.6957 113.13 52.087 113.13 51.4783C113.13 50.8696 112.522 50.2609 111.913 50.2609C111.304 50.2609 110.696 50.8696 110.696 51.4783C110.696 52.087 111 52.6957 111.913 52.6957ZM111.913 53C111 53 110.391 52.3913 110.391 51.4783C110.391 50.5652 111 49.9565 111.913 49.9565C112.826 49.9565 113.435 50.5652 113.435 51.4783C113.435 52.3913 112.826 53 111.913 53ZM72.0435 50.5652L67.1739 49.9565L71.1304 47.2174L76 47.8261L72.0435 50.5652ZM91.8261 46.913L87.8696 45.3913L83.6087 46.913L87.8696 48.4348L91.8261 46.913ZM93.0435 46.913L87.8696 48.7391L82.6956 46.913L87.8696 45.087L93.0435 46.913Z" fill="#004996"/>
</svg>
