<svg width="556" height="561" viewBox="0 0 556 561" fill="none" xmlns="http://www.w3.org/2000/svg">
    <g opacity=".05">
        <path d="M273.201 191.367c-51.371 0-93.402 42.007-93.402 93.349 0 51.342 42.031 93.349 93.402 93.349s93.402-42.007 93.402-93.349c.778-51.342-41.252-93.349-93.402-93.349zM77.835 122.132c-.778.778-.778 2.334 0 3.112 0 .778.779.778 1.557.778l98.072 56.787c.779.778 2.335.778 3.114 0l.778-.778v-.777c9.34-16.337 21.794-30.339 37.361-41.23 16.345-11.669 33.469-18.67 52.149-21.781 0 0 .779 0 .779-.778.778-.778 1.556-2.334 1.556-3.112L253.743 3.112c0-.778 0-.778-.779-1.556C252.186.778 251.408 0 249.851 0c-34.248 6.223-68.495 20.226-99.629 42.007-30.356 21.782-54.485 49.787-72.387 80.125zM21.793 336.836c.779.777 1.557 1.555 2.335 1.555h1.557l105.856-40.451c.778-.778 1.557-1.556 1.557-2.334v-1.556c-7.005-17.114-10.119-35.784-8.562-55.231 1.557-19.448 7.005-38.118 15.567-53.676v-1.556c0-1.556-.778-2.334-1.557-3.112l-98.85-54.454h-1.557c-1.557 0-2.335.778-3.114 1.556C17.902 158.694 7.783 193.7 5.448 231.039c-2.335 37.34 3.892 73.124 16.345 105.797zM156.448 513.419c.779 0 2.335 0 3.114-.778 0-.777.778-.777.778-1.555l33.469-108.13c0-.778 0-2.334-.778-3.112l-.778-.778h-.779c-17.902-5.445-34.247-14.002-49.036-27.227-14.789-13.224-25.685-28.782-32.691-45.896l-.778-.778c-.778-.778-2.335-.778-3.113-.778l-104.3 44.341c-.778 0-.778.778-.778.778C0 370.284 0 371.839 0 372.617c14.01 32.673 35.026 62.233 63.046 87.904 28.021 25.671 59.933 42.785 93.402 52.898zM377.5 518.867c.778-.778 1.557-1.556 1.557-3.112 0-.778 0-.778-.779-1.556l-63.046-94.127c-.778-.778-1.557-1.556-3.113-1.556h-1.557c-14.789 10.113-32.691 17.892-52.15 21.003-19.458 3.112-38.139 1.556-56.041-3.111h-1.557c-1.556 0-2.335.778-2.335 2.334l-30.355 108.907v1.556c0 .778.778 2.334 2.335 2.334 33.469 9.335 70.83 12.446 107.412 6.223 36.583-5.445 70.052-18.67 99.629-38.895zM520.716 350.06c0-.778-.778-2.333-1.556-3.111-.779 0-.779-.778-1.557-.778l-112.861-8.557c-1.557 0-2.335.778-3.113 1.556V340.725c-1.557 18.67-6.227 36.562-15.567 53.676-9.34 17.114-22.572 31.117-37.361 42.008l-.778.778c-.779.777-.779 2.333 0 3.111l66.938 91.016.778.778c.778.778 2.335.778 3.113 0 28.799-21.004 52.928-48.231 71.609-80.903 17.902-30.339 28.02-66.123 30.355-101.129zM478.686 132.249c-.779-.778-2.336-.778-3.114-.778s-.778.778-1.557.778l-77.835 82.458c-.778.778-.778 2.334-.778 3.112 0 0 0 .778.778.778 13.232 12.446 24.907 28.005 31.913 45.897 7.005 17.892 10.118 37.339 9.34 55.231v2.334c.778 1.556 1.557 1.556 2.335 2.334l112.861 5.445h1.557c.778-.778 1.556-1.556 1.556-2.333 1.557-35.006-3.891-71.568-17.902-106.574-12.453-34.229-33.469-64.567-59.154-88.682zM280.207 31.116c-.779 0-2.335.778-2.335 2.334v1.556l16.345 112.019c0 .778.778 2.334 2.335 2.334h1.557c17.902-3.112 37.36-2.334 56.041 3.111 18.68 5.446 35.804 14.781 49.036 27.227l.778.778c1.557 0 2.335 0 3.114-.778l73.943-85.57s.778-.778.778-1.556.001-2.334-.778-3.111c-26.464-23.338-58.376-41.23-94.959-51.343-34.247-10.112-70.83-12.446-105.855-7z" fill="#fff"/>
        <path d="M341.696 337.614c1.557-3.89 1.557-8.557 2.335-11.669-1.557 1.556-3.892 3.89-6.227 5.446-6.227 4.667-13.232 7.779-20.237 9.335l-17.902-19.448 13.232 23.337c-3.113 6.223-8.562 11.669-14.789 16.336-2.335 1.556-4.67 3.112-7.005 3.89 3.113.778 7.784 1.556 11.675 1.556-9.34 3.111-18.68 4.667-28.799 4.667-10.118 0-20.237-1.556-28.799-4.667 3.892 0 8.562-.778 11.676-1.556-2.335-1.556-4.671-2.334-7.006-3.89-6.226-4.667-11.675-10.113-14.788-16.336l13.232-23.337-17.902 19.448c-7.006-1.556-14.011-4.668-20.238-9.335-2.335-1.556-3.891-3.112-6.226-5.446.778 3.112.778 7.779 2.335 11.669-11.676-14.78-17.902-32.672-17.902-52.898v-3.112c.778 3.89 3.113 7.779 5.448 10.891.779-2.334.779-5.445 1.557-7.779 2.335-7.779 6.227-14.003 10.897-19.448l25.685 5.445-24.128-10.89c-.779-7.002-.001-14.003 2.334-21.782.779-2.334 1.557-4.667 3.114-7.001-3.113 1.556-7.784 3.89-10.897 6.223 11.675-17.114 28.021-29.56 48.258-35.006-3.892 2.334-7.005 6.224-9.34 8.557 2.335 0 5.448-.778 7.783-.778 7.784 0 15.567 1.556 21.794 4.668l3.113 26.449 3.114-26.449c6.227-3.112 14.01-4.668 21.794-4.668 2.335 0 5.448 0 7.783.778-2.335-2.333-6.227-6.223-9.34-8.557 20.237 5.446 37.361 17.892 48.258 35.006-3.114-3.111-7.784-4.667-10.897-6.223.778 2.334 2.335 4.667 3.113 7.001 2.335 7.779 3.114 14.78 2.335 21.782l-24.129 10.89 25.686-5.445c4.67 5.445 8.562 11.669 10.897 19.448.778 2.334 1.556 5.445 1.556 7.779 1.557-3.112 3.892-7.001 4.671-10.891v3.112c.778 20.226-6.227 38.895-17.124 52.898zm-68.495-146.248c-51.371 0-93.402 42.008-93.402 93.35 0 51.342 42.031 93.349 93.402 93.349s93.402-42.007 93.402-93.349c.778-51.342-41.252-93.35-93.402-93.35z" fill="#000"/>
        <path d="m235.84 273.045 14.011 44.341h46.7l14.789-44.341-38.139-28.005-37.361 28.005z" fill="#000"/>
    </g>
</svg>
