<svg width="33" height="32" viewBox="0 0 33 32" fill="none" xmlns="http://www.w3.org/2000/svg">
    <path fill-rule="evenodd" clip-rule="evenodd" d="M16.5 0C7.677 0 .5 7.177.5 16c0 8.82 7.177 16 16 16 8.82 0 16-7.18 16-16 0-8.823-7.18-16-16-16zm9.405 20.684-5.377-.7-2.344-6.175 3.808-4.96 4.345 1.337 1.793 6.812-2.225 3.685v.001zm-10.18 4.461-5.804-1.697-2.711-6.352 3.508-4.21 6.907 1.14 2.343 6.17-4.243 4.95zM26.707 7.072 26.34 9.56l-4.575-1.407-4.32-4.172.696-1.453a13.545 13.545 0 0 1 8.565 4.545h.001v-.001zM16.5 2.42c.34 0 .675.028 1.008.052l-.644 1.343-6.323 2.476H7.026a13.523 13.523 0 0 1 9.473-3.872h.001v.001zM6.46 6.887h3.84v5.568l-3.575 4.292H2.958c-.015-.251-.04-.496-.04-.748 0-3.509 1.351-6.7 3.543-9.113zm1.255 19.448 2.084-2.304 5.851 1.712 2.569 3.355v.36c-.564.071-1.136.121-1.717.121a13.503 13.503 0 0 1-8.787-3.244zm11.101 3.03v-.169l5.787-2.327a13.484 13.484 0 0 1-5.787 2.495zm6.913-3.434.621-4.825 2.27-3.76h1.39c-.333 3.38-1.923 6.393-4.281 8.586z" fill="#092635"/>
</svg>
