<svg width="24" height="24" viewBox="0 0 24 24" fill="none" xmlns="http://www.w3.org/2000/svg">
    <g clip-path="url(#s1c4ne0fba)">
        <path fill-rule="evenodd" clip-rule="evenodd" d="m21.854 7.74 2 1.957a.482.482 0 0 1 .022.67l-3.5 3.912a.498.498 0 0 1-.36.167H20a.51.51 0 0 1-.354-.143l-2.5-2.446a.487.487 0 0 1-.146-.346v-.67c-.586-.051-1.842.64-2.726 1.225L11.007 8.87c.387-.406.993-1.204.993-2.25 0-1.26-.467-2.935-4.5-2.935a.5.5 0 0 1-.462-.303.48.48 0 0 1 .108-.533l.003-.002C8.055 1.962 9.297.75 11.999.75c2.709 0 4.053 1.315 4.855 2.1l4 3.912A.487.487 0 0 1 21 7.11v.489h.5c.133 0 .26.05.354.143zM0 20.727c0-.732.269-1.366.756-1.842l9.537-9.33 3.224 3.155-9.028 9.715a2.614 2.614 0 0 1-1.909.826C1.157 23.25 0 22.118 0 20.726z" fill="#C6A062"/>
    </g>
    <defs>
        <clipPath id="s1c4ne0fba">
            <path fill="#fff" d="M0 0h24v24H0z"/>
        </clipPath>
    </defs>
</svg>
