<svg width="33" height="32" viewBox="0 0 33 32" fill="none" xmlns="http://www.w3.org/2000/svg">
    <path fill-rule="evenodd" clip-rule="evenodd" d="M31.217 14.372c.183-.345.346-.7.489-1.064.374-1.191-1.02-4.495-2.153-5.045a5.448 5.448 0 0 0-.937-.25c.547 1.187 1.389 3.163 2.6 6.36zM15.764 25.658c-.102-.908-.127-1.824-.197-3.052a22.05 22.05 0 0 1 2.112-.888c-1.331-5.102-3.176-8.073-4.252-9.535-2.835 1.232-5.066 2.132-7.913 3.328-2.625 1.105-3.43 2.99-2.379 5.579.312.768.616 1.536.941 2.3.596 1.414 2.605 2.392 4.108 2.244a2.658 2.658 0 0 1 1.862.67c.977.924 1.73 2.087 2.678 3.052.822.859 2.827.645 3.887-.366 1.06-1.01.107-1.68-.411-2.436a2.157 2.157 0 0 1-.435-.896zM32.404 20.885c-.555-1.685-1.372-3.287-1.935-4.96a.667.667 0 0 1-.029-.18c-1.746-4.675-2.79-6.984-3.287-8.028l-.045-.066-.074-.164a5.973 5.973 0 0 0-.28-.514l.042-.024c-.678-1.553-1.257-3.156-1.984-4.688a1.54 1.54 0 0 0-1.348-.661c-.374.106-.674.792-.822 1.277-.21.637-.11 1.389-.382 1.985a11.997 11.997 0 0 1-6.088 6.162l-.876.387c1.13 1.569 3.024 4.589 4.343 9.617 3.085-1.047 5.707-1.294 9.182.058.576.226 1.048.694 1.611.974.563.279 1.327.916 1.713.653.386-.263.432-1.303.259-1.828zM3.274 24.426S1.43 20.803 1.565 19.55c0 0-1.573.521-.895 2.941.677 2.42 2.362 1.935 2.604 1.935z" fill="#092635"/>
</svg>
