<svg width="33" height="32" viewBox="0 0 33 32" fill="none" xmlns="http://www.w3.org/2000/svg">
    <path d="M16.373 3.412C9.95 3.453 4.742 6.28 4.757 9.712c.015 3.432 5.342 6.213 11.865 6.203 6.524-.01 11.713-2.832 11.616-6.295-.096-3.463-5.438-6.248-11.865-6.208zm1.68 9.56v1.104h-2v-1.018a14.577 14.577 0 0 1-3.48-.454l.592-1.268c1.104.309 2.245.465 3.391.464 1.161 0 1.95-.24 1.94-.678-.01-.437-.667-.667-2.174-.931-2.185-.382-3.677-.917-3.692-1.966 0-.952 1.227-1.701 3.391-1.94V5.266h1.982v.952c.99 0 1.978.115 2.943.342l-.555 1.227a11.642 11.642 0 0 0-2.928-.351c-1.32 0-1.737.31-1.732.61.005.301.723.581 2.455.922 2.429.449 3.417 1.019 3.442 2.037.026 1.019-1.232 1.747-3.575 1.966z" fill="#092635"/>
    <path d="M16.333 1.146C7.589 1.212.5 5.05.5 9.726c0 4.675 7.236 8.454 16.169 8.454 8.932 0 16.016-3.845 15.827-8.58-.188-4.737-7.425-8.52-16.163-8.454zm.31 15.705c-7.511 0-13.627-3.198-13.637-7.13-.01-3.931 5.978-7.185 13.352-7.236 7.374-.051 13.49 3.147 13.638 7.13.148 3.982-5.856 7.23-13.353 7.236z" fill="#092635"/>
    <path d="M16.665 19.31h-.764c-7.13-.173-13.057-2.765-14.844-6.243H.583c.835 4.263 7.715 7.588 16.082 7.588s14.993-3.315 15.757-7.588h-.444c-1.772 3.585-7.908 6.244-15.313 6.244z" fill="#092635"/>
    <path d="M16.665 21.744h-.764c-7.13-.173-13.057-2.765-14.844-6.243H.583c.835 4.263 7.715 7.583 16.082 7.583s14.993-3.315 15.757-7.583h-.444c-1.772 3.585-7.908 6.243-15.313 6.243z" fill="#092635"/>
    <path d="M16.665 24.153h-.764c-7.13-.173-13.057-2.76-14.844-6.244H.583c.835 4.263 7.715 7.588 16.082 7.588s14.993-3.315 15.757-7.588h-.444c-1.772 3.6-7.908 6.244-15.313 6.244z" fill="#092635"/>
    <path d="M16.665 26.578h-.764c-7.13-.173-13.057-2.765-14.844-6.244H.583c.835 4.263 7.715 7.588 16.082 7.588s14.993-3.315 15.757-7.588h-.444c-1.772 3.6-7.908 6.244-15.313 6.244z" fill="#092635"/>
    <path d="M16.665 29h-.764c-7.13-.172-13.057-2.765-14.844-6.243H.583c.835 4.263 7.715 7.588 16.082 7.588s14.993-3.32 15.757-7.588h-.444c-1.772 3.595-7.908 6.244-15.313 6.244z" fill="#092635"/>
</svg>
