<svg width="377" height="96" viewBox="0 0 377 96" fill="none" xmlns="http://www.w3.org/2000/svg">
    <g clip-path="url(#a)">
        <path d="M63.101 48.603c0-8.822-7.157-16.02-16.02-16.02-8.823 0-16.021 7.199-16.021 16.02 0 8.822 7.198 16.021 16.02 16.021 8.864-.041 16.021-7.199 16.021-16.02z" fill="#FCFCFC"/>
        <path d="M63.101 48.603c0-8.822-7.157-16.02-16.02-16.02-8.823 0-16.021 7.199-16.021 16.02 0 8.822 7.198 16.021 16.02 16.021 8.864-.041 16.021-7.199 16.021-16.02zm-1.29-.499v.458c0 3.412-1.165 6.533-3.08 9.03.25-.666.292-1.415.417-1.998-.333.292-.666.583-1.04.874-1.082.79-2.289 1.332-3.454 1.581l-3.08-3.37-.041.041 2.247 3.995c-.583 1.04-1.456 1.998-2.58 2.83-.375.291-.749.5-1.165.707.582.084 1.332.25 1.997.25-1.54.54-3.204.874-4.952.874-1.747 0-3.412-.291-4.951-.874.707.042 1.414-.125 2.038-.25-.374-.208-.79-.458-1.165-.707-1.123-.832-1.997-1.79-2.58-2.83l2.248-3.995-.042-.041-3.08 3.37a8.88 8.88 0 0 1-3.453-1.58 6.811 6.811 0 0 1-1.04-.875c.083.583.166 1.373.416 1.998a14.566 14.566 0 0 1-3.121-9.03v-.458c.166.707.582 1.373.873 1.914.084-.416.209-.874.333-1.331.416-1.332 1.082-2.456 1.915-3.33l4.41.916.042-.042-4.161-1.872c-.125-1.165 0-2.455.416-3.745.125-.458.291-.874.5-1.249-.583.25-1.332.583-1.873 1.082 1.914-2.87 4.868-5.035 8.28-5.992-.624.375-1.206.999-1.622 1.457.416-.042.874-.084 1.373-.084a9.69 9.69 0 0 1 3.745.75l.5 4.452h.041l.5-4.494a9.478 9.478 0 0 1 3.703-.75c.458 0 .915.042 1.373.084-.458-.458-.999-1.082-1.623-1.456 3.412.957 6.325 3.12 8.281 5.992-.54-.458-1.29-.79-1.873-1.082.209.374.375.832.5 1.248.416 1.29.54 2.58.416 3.745l-4.12 1.873.042.041 4.41-.915a8.917 8.917 0 0 1 1.873 3.329c.125.458.25.874.333 1.332.292-.5.708-1.166.874-1.873zm-10.694 5.992 2.455-7.615-6.492-4.702-6.491 4.702 2.497 7.615h8.03z" fill="#010202"/>
        <path d="M13.707 20.723a.512.512 0 0 0 .042.541c.042.083.125.125.208.166l16.728 9.738.042.041c.166.084.374.084.582-.041l.125-.125c.042-.042.042-.042.042-.083a22.61 22.61 0 0 1 6.408-7.116 21.715 21.715 0 0 1 8.864-3.704h.083c.083 0 .125-.041.208-.083a.542.542 0 0 0 .208-.54v-.042L43.71.458V.416c-.042-.083-.042-.166-.083-.208-.125-.166-.291-.25-.5-.208h-.041c-5.91 1.082-11.776 3.412-16.978 7.116a41.904 41.904 0 0 0-12.4 13.607z" fill="#92278F"/>
        <path d="M4.178 57.467c.083.166.25.291.458.333.083 0 .166 0 .25-.042l18.06-6.95h.04a.644.644 0 0 0 .334-.457c0-.083 0-.125-.042-.208 0-.042-.041-.083-.041-.083-1.166-2.913-1.707-6.117-1.54-9.446a22.073 22.073 0 0 1 2.663-9.238l.042-.042c.041-.041.041-.125.041-.208 0-.208-.083-.416-.25-.5l-.041-.04L7.091 21.43h-.042c-.083-.041-.166-.041-.25-.041-.208 0-.374.083-.457.25 0 .041 0 .041-.042.041a42.94 42.94 0 0 0-4.993 17.644C.89 45.732 1.93 51.89 4.178 57.467z" fill="#005BAA"/>
        <path d="M27.107 87.677c.208.042.374 0 .54-.166.084-.083.125-.125.125-.25l5.743-18.476v-.041c.041-.208 0-.416-.167-.541a.315.315 0 0 0-.166-.083c-.042 0-.042-.042-.083-.042-2.996-.916-5.868-2.455-8.364-4.702-2.497-2.247-4.37-4.91-5.576-7.823 0-.042 0-.042-.042-.042-.042-.083-.083-.125-.125-.166a.585.585 0 0 0-.582-.084h-.042L.599 62.96.558 63c-.083.042-.125.084-.208.125-.125.167-.167.375-.084.541 0 .042 0 .042.042.042a42.601 42.601 0 0 0 10.736 14.98c4.827 4.245 10.32 7.24 16.063 8.989z" fill="#009BDF"/>
        <path d="M64.849 88.551c.166-.124.25-.291.208-.499a.592.592 0 0 0-.083-.25L54.196 71.74l-.041-.042a.542.542 0 0 0-.541-.208c-.084 0-.125.042-.208.083-.042 0-.042.042-.084.042a21.619 21.619 0 0 1-8.905 3.579 21.883 21.883 0 0 1-9.612-.583h-.084c-.083-.041-.124-.041-.208 0a.549.549 0 0 0-.416.375v.041L28.98 93.67v.041a.265.265 0 0 0 0 .25c.042.208.166.333.375.416h.041a42.555 42.555 0 0 0 18.393 1.04c6.325-1.082 12.067-3.453 17.06-6.866z" fill="#00A651"/>
        <path d="M89.4 59.756a.593.593 0 0 0-.25-.5.592.592 0 0 0-.249-.083l-19.308-1.498h-.042c-.208 0-.416.083-.499.291-.042.083-.042.125-.042.208v.084a21.89 21.89 0 0 1-2.704 9.196 21.45 21.45 0 0 1-6.409 7.199c-.041 0-.041.041-.041.041-.042.042-.084.084-.125.167-.083.208-.083.416.041.582l.042.042L71.257 91.09v.041c.042.042.125.125.209.125a.512.512 0 0 0 .54-.041c.042 0 .042 0 .042-.042a42.134 42.134 0 0 0 12.193-13.815c3.037-5.618 4.743-11.61 5.16-17.602z" fill="#FFF200"/>
        <path d="M82.118 22.512a.51.51 0 0 0-.54-.083c-.084.042-.167.083-.209.167L68.053 36.66l-.041.041a.51.51 0 0 0-.083.541c.041.083.083.125.083.167.041.041.041.041.083.041 2.289 2.122 4.161 4.786 5.451 7.907 1.249 3.12 1.748 6.366 1.54 9.487v.084c0 .083 0 .124.041.207.084.209.25.333.458.333h.042l19.308.916h.042c.083 0 .166 0 .25-.042.207-.083.29-.25.332-.458v-.041a42.219 42.219 0 0 0-3.037-18.185c-2.414-5.909-5.993-11.027-10.404-15.147z" fill="#F68B1F"/>
        <path d="M48.287 5.202c-.208.041-.374.166-.416.374-.041.083-.041.208-.041.25l2.83 19.142v.041c.04.208.166.375.374.416a.376.376 0 0 0 .208.042c.041 0 .083 0 .083-.042a22.04 22.04 0 0 1 9.57.583c3.247.915 6.076 2.538 8.448 4.619l.042.041a.316.316 0 0 0 .166.084c.208.083.416 0 .541-.167l.042-.041 12.65-14.648.042-.042c.041-.041.083-.124.125-.208a.631.631 0 0 0-.125-.54l-.042-.042a42.815 42.815 0 0 0-16.187-8.822c-6.117-1.623-12.36-1.956-18.31-1.04z" fill="#D80F15"/>
        <path d="M249.983 66.913v-25.8h-7.615v2.663c-2.289-2.122-4.203-3.162-7.324-3.162-7.074 0-12.317 6.367-12.317 13.524 0 8.28 4.827 13.399 11.901 13.399 4.827 0 7.615-3.163 7.615-3.163v2.539h7.74zm-7.324-12.692c0 3.745-2.871 6.284-6.284 6.284-3.578 0-5.784-2.955-5.784-6.534 0-3.412 2.331-6.158 6.034-6.158 3.371.041 6.034 2.621 6.034 6.408zm-23.178 9.654v-22.72h-7.366v2.871c-2.205-2.33-4.369-3.412-7.615-3.412-6.699 0-11.069 5.909-11.069 12.9 0 7.032 4.453 12.567 11.028 12.567 3.037 0 5.784-1.623 7.282-2.997.083.666.041 1.249.041 1.915 0 2.83-2.496 4.078-5.159 4.078-1.915 0-2.997-.333-4.037-2.123h-8.655c.832 5.826 6.283 8.989 12.525 8.989 7.116.041 13.025-4.12 13.025-12.068zm-7.324-10.361c0 2.912-2.039 6.033-5.909 6.033-3.412 0-5.326-2.746-5.326-6.033 0-3.205 1.789-6.2 5.368-6.2 3.953 0 5.867 2.746 5.867 6.2zm-21.181-19.017a4.653 4.653 0 0 0-4.66-4.66c-2.539 0-4.619 2.163-4.619 4.743 0 2.663 2.039 4.702 4.535 4.702 2.664 0 4.744-2.164 4.744-4.785zm-30.21 32.416h18.267v-7.324h-9.987V34.705h-8.28v32.208zm-12.276 0h7.74v-25.8h-7.615v2.663c-2.289-2.122-4.203-3.162-7.324-3.162-7.074 0-12.317 6.367-12.317 13.524 0 8.28 4.827 13.399 11.901 13.399 4.827 0 7.615-3.163 7.615-3.163v2.539zm.374-12.692c0 3.745-2.829 6.284-6.283 6.284-3.537 0-5.784-2.955-5.784-6.534 0-3.412 2.372-6.158 6.034-6.158 3.37.041 6.033 2.621 6.033 6.408zm-39.531 12.692H127.6v-7.324h-9.987V34.705h-8.28v32.208zm80.811-25.8h-7.698v25.8h7.698v-25.8z" fill="#000"/>
        <path d="M265.587 66.913h-6.325V34.58h7.699c2.455 0 4.244.083 5.451.25 1.207.166 2.205.457 3.037.832 1.831.874 3.246 2.039 4.203 3.579.957 1.54 1.457 3.329 1.457 5.41 0 2.496-.708 4.618-2.081 6.366-1.373 1.748-3.246 2.83-5.618 3.329l8.073 12.525h-7.532l-8.364-15.022v15.064zm0-16.603h1.415c2.58 0 4.494-.458 5.826-1.374 1.331-.915 1.997-2.288 1.997-4.036 0-1.706-.541-2.996-1.664-3.787-1.124-.832-2.83-1.207-5.202-1.207h-2.372V50.31zm17.103 4.286c0-1.707.333-3.33.957-4.91a12.326 12.326 0 0 1 2.747-4.12 13.185 13.185 0 0 1 4.161-2.83 11.886 11.886 0 0 1 4.785-.999c1.748 0 3.371.292 4.869.874a12.22 12.22 0 0 1 4.078 2.622 13.456 13.456 0 0 1 2.954 4.244 12.154 12.154 0 0 1 1.041 4.952c0 1.873-.292 3.579-.916 5.118a12.287 12.287 0 0 1-2.746 4.162 12.442 12.442 0 0 1-4.161 2.871c-1.54.624-3.246.957-5.077.957s-3.496-.333-5.035-.957c-1.498-.666-2.872-1.623-4.12-2.913-1.165-1.29-2.081-2.663-2.705-4.203a14.59 14.59 0 0 1-.832-4.868zm5.867-.042c0 2.247.625 4.078 1.873 5.368 1.248 1.332 2.913 1.997 5.077 1.997 2.08 0 3.786-.665 5.035-2.039 1.248-1.373 1.872-3.162 1.872-5.45 0-2.04-.665-3.746-1.955-5.078-1.29-1.331-2.955-1.997-4.952-1.997-2.039 0-3.704.666-4.994 1.997-1.331 1.332-1.956 3.08-1.956 5.202zm21.805.042c0-1.707.333-3.33.957-4.91a12.341 12.341 0 0 1 2.747-4.12 13.185 13.185 0 0 1 4.161-2.83 11.891 11.891 0 0 1 4.786-.999c1.747 0 3.37.292 4.868.874a12.22 12.22 0 0 1 4.078 2.622 13.476 13.476 0 0 1 2.955 4.244 12.169 12.169 0 0 1 1.04 4.952c0 1.873-.291 3.579-.915 5.118a12.305 12.305 0 0 1-2.747 4.162 12.442 12.442 0 0 1-4.161 2.871c-1.54.624-3.246.957-5.077.957s-3.495-.333-5.035-.957c-1.498-.666-2.871-1.623-4.12-2.913-1.165-1.29-2.08-2.663-2.704-4.203a14.591 14.591 0 0 1-.833-4.868zm5.868-.042c0 2.247.624 4.078 1.872 5.368 1.249 1.332 2.913 1.997 5.077 1.997 2.081 0 3.787-.665 5.035-2.039 1.248-1.373 1.873-3.162 1.873-5.45 0-2.04-.666-3.746-1.956-5.078-1.29-1.331-2.955-1.997-4.952-1.997-2.039 0-3.704.666-4.994 1.997-1.331 1.332-1.955 3.08-1.955 5.202zm28.879-12.068v2.788c.832-1.123 1.789-1.914 2.871-2.455 1.082-.54 2.289-.79 3.662-.79 1.956 0 3.662.332 5.035 1.04 1.415.707 2.58 1.79 3.62 3.246.957-1.457 2.039-2.539 3.246-3.246a7.733 7.733 0 0 1 3.953-1.082c2.996 0 5.285.957 6.866 2.83 1.582 1.872 2.414 4.577 2.414 8.072v14.024H371.2v-10.82c0-3.328-.375-5.576-1.082-6.74-.749-1.207-1.998-1.79-3.787-1.79-1.872 0-3.204.666-4.036 1.997-.791 1.332-1.207 3.62-1.207 6.908v10.445h-5.618v-10.82c0-3.287-.374-5.534-1.123-6.74-.749-1.207-2.039-1.79-3.912-1.79-1.914 0-3.246.666-4.078 1.997-.832 1.332-1.248 3.62-1.248 6.908v10.445h-5.493V42.486h5.493z" fill="url(#b)"/>
    </g>
    <defs>
        <linearGradient id="b" x1="259.282" y1="51.069" x2="376.773" y2="51.069" gradientUnits="userSpaceOnUse">
            <stop stop-color="#A87D36"/>
            <stop offset="1" stop-color="#D8B074"/>
        </linearGradient>
        <clipPath id="a">
            <path fill="#fff" transform="translate(.225)" d="M0 0h376.551v96H0z"/>
        </clipPath>
    </defs>
</svg>
