<svg width="1340" height="113" viewBox="0 0 1340 113" fill="none" xmlns="http://www.w3.org/2000/svg">
    <path opacity=".1" d="M909.464.263a235.616 235.616 0 0 1-26.563 80.414v.262a3.233 3.233 0 0 1-2.63 1.315c-.455.04-.911-.05-1.315-.263h-.263l-61.806-32.85A192.48 192.48 0 0 0 844.765.264h64.699zM841.872 85.67a213.028 213.028 0 0 1-18.41 27.067h-92.84a198.23 198.23 0 0 0 75.482-50.981l34.453 19.71a3.202 3.202 0 0 1 1.315 4.204zM587.812 113H455.784a1.369 1.369 0 0 1 .526-1.051l49.445-56.5A203.771 203.771 0 0 0 587.812 113zm-91.525-70.428-31.561 32.849c-.401.32-.843.585-1.315.788a2.868 2.868 0 0 1-3.156-.525A237.616 237.616 0 0 1 405.814.263h67.065a214.07 214.07 0 0 0 23.408 42.31zM800.055.262a165.14 165.14 0 0 1-8.416 18.396 1.708 1.708 0 0 1-1.744.77 1.714 1.714 0 0 1-.623-.244L753.766.263h46.289zm-241.7 0L543.89 15.506c-.263.262-.526.525-.789.525a2.314 2.314 0 0 1-1.841-.263A112.904 112.904 0 0 1 527.058.263h31.297zm9.994 3.154-29.193 33.375a1.97 1.97 0 0 0 0 2.365 139.16 139.16 0 0 0 53.39 28.907 138.523 138.523 0 0 0 60.49 3.942c.526 0 1.052-.526 1.315-1.314v-.789l-3.682-24.965a118.42 118.42 0 0 1-45.373-12.42 118.338 118.338 0 0 1-36.947-29.1zM670.132 89.35h.526a140.69 140.69 0 0 0 56.019-23.389 140.298 140.298 0 0 0 40.766-44.411 1.607 1.607 0 0 0-.197-1.977 1.603 1.603 0 0 0-.592-.388L746.139 7.358a119.188 119.188 0 0 1-38.958 27.838A119.279 119.279 0 0 1 660.4 45.463l7.89 42.572a1.969 1.969 0 0 0 1.842 1.314zM385.825 113h-108.62a389.852 389.852 0 0 1-43.395-78.837 433.282 433.282 0 0 1-11.836-33.9h114.407A320.466 320.466 0 0 0 385.825 113zM1077.79.263c0 6.307-.27 12.351-.79 18.395a394.328 394.328 0 0 1-17.62 94.079H932.345A320.466 320.466 0 0 0 981.79 0h96v.263zM143.074 113H0V.263h115.458A534.987 534.987 0 0 0 143.074 113zM1340 .263V113h-164.9A548.455 548.455 0 0 0 1202.98.263H1340z" fill="#25282A"/>
</svg>
